<svg width="275" height="243" viewBox="0 0 275 243" fill="none" xmlns="http://www.w3.org/2000/svg">
<g id="analytics ">
<g id="Group 58">
<g id="ground">
<path id="Vector" fill-rule="evenodd" clip-rule="evenodd" d="M233.881 217.218C288.848 216.649 299.392 248.909 198.368 242.04C180.838 240.849 153.032 231.341 130.089 229.49C105.309 227.491 57.0588 230.382 49.6889 230.048C20.6048 228.725 3.17485 216.47 86.9145 217.218C117.66 217.491 206.278 217.502 233.881 217.218V217.218Z" fill="#DEDCDC"/>
</g>
<path id="Vector_2" d="M136.663 223.358C144.057 223.358 150.051 222.353 150.051 221.113C150.051 219.873 144.057 218.868 136.663 218.868C129.27 218.868 123.276 219.873 123.276 221.113C123.276 222.353 129.27 223.358 136.663 223.358Z" fill="black" fill-opacity="0.2"/>
<path id="Vector_3" fill-rule="evenodd" clip-rule="evenodd" d="M262.69 95.6407C279.594 152.389 239.266 235.153 196.537 192.514C174.169 170.194 133.701 141.926 104.938 160.655C-8.85469 234.759 -16.597 107.657 18.4298 114.857C113.229 134.345 106.608 84.9205 129.186 46.8639C159.296 -3.88902 239.729 18.5565 262.69 95.6407V95.6407Z" fill="#F6F6F6"/>
<path id="Vector_4" d="M54.1077 227.286C61.1933 227.286 66.9373 226.407 66.9373 225.322C66.9373 224.237 61.1933 223.358 54.1077 223.358C47.0221 223.358 41.2781 224.237 41.2781 225.322C41.2781 226.407 47.0221 227.286 54.1077 227.286Z" fill="black" fill-opacity="0.2"/>
<path id="Vector_5" d="M67.5447 219.399C67.0722 218.777 66.6396 218.119 66.2504 217.428C64.9727 215.256 64.1987 213 63.6043 210.213C62.4036 205.163 62.1941 199.88 62.9901 194.729C63.054 195.165 63.0694 195.584 63.117 196.044C63.1318 196.685 63.423 197.093 63.6982 197.525C63.9089 197.876 63.972 198.4 64.2309 198.812C64.6687 199.402 65.447 199.307 65.871 198.635C66.1775 198.766 66.5121 198.79 66.8309 198.704C67.1497 198.618 67.438 198.426 67.6579 198.153C68.065 197.638 68.294 196.945 68.4741 196.236C68.5066 196.054 68.54 195.874 68.5565 195.717C68.897 196.008 69.3185 196.178 69.709 195.776C70.4248 195.113 70.5578 193.812 70.414 192.788C70.3592 192.374 70.262 191.97 70.1244 191.581L70.1568 191.578C70.8718 191.269 70.7287 189.979 70.4378 189.349C70.2252 188.794 69.9421 188.276 69.5971 187.811C69.6629 187.666 69.6806 187.499 69.6469 187.34C69.5679 186.352 68.8714 185.705 68.2387 185.449C67.4604 185.1 66.4049 185.162 65.8864 184.693C65.6752 184.463 65.5194 184.177 65.4337 183.861C65.4013 183.821 65.4013 183.776 65.3851 183.712C65.455 183.524 65.515 183.332 65.5649 183.136C66.6436 180.035 67.7213 177.289 69.2532 174.71C69.2937 175.016 69.3147 175.324 69.3161 175.633C69.298 176.455 69.1984 177.398 69.6842 177.96C70.2507 178.711 71.2407 178.658 71.682 177.563C71.9431 176.955 71.9611 176.221 72.2547 175.609C72.3394 175.426 72.4375 175.251 72.548 175.086C72.7252 175.708 72.5445 176.683 72.3643 177.391C71.9053 179.309 70.5873 180.599 70.0632 182.568C69.9152 183.406 70.369 183.751 70.8238 183.651C70.7412 184.303 70.6424 184.936 70.7222 185.569C70.9944 187.198 72.0804 187.975 73.2504 187.523C73.2815 188.096 73.3127 188.668 73.4902 189.157C73.8448 190.266 74.7846 191.083 75.7277 190.658C76.0928 190.463 76.4067 190.166 76.639 189.794C77.1717 191.126 77.3293 193.19 78.6926 193.379C79.1142 193.506 79.5694 193.317 79.9114 192.899C80.1482 193.035 80.3986 193.139 80.6572 193.209C81.1599 193.258 81.6481 192.977 82.0713 192.572C83.4869 191.137 83.3791 188.601 82.8474 186.782C82.8474 186.737 82.8312 186.717 82.8312 186.673C82.8798 186.645 82.9285 186.661 82.9771 186.633C84.7328 185.666 83.5209 183.087 82.5813 182.181L82.4678 182.04C83.5094 180.983 82.6851 179.376 81.6479 178.527C81.4533 178.373 81.2912 178.171 81.0966 178.018C81.3476 177.753 81.5187 177.407 81.586 177.027C81.7666 176.097 81.2001 175.39 80.665 175.078C80.3302 174.909 79.983 174.774 79.6273 174.672C79.7031 174.526 79.7391 174.359 79.7308 174.19C79.7225 174.022 79.6704 173.86 79.5808 173.724C79.1925 173.151 78.5269 173.032 77.9432 173.103C77.7324 173.151 77.5378 173.219 77.3097 173.291C77.1151 172.96 76.4828 172.97 76.1413 173.033C75.2319 173.144 74.5329 173.517 73.8195 173.16C73.1872 172.815 72.8966 172.053 72.59 171.226C72.4781 170.882 72.3866 170.53 72.3163 170.173C73.7984 168.109 75.3289 166.195 76.9243 164.317C77.0584 164.926 77.1171 165.553 77.0986 166.18C77.0793 167.489 76.7165 170.016 78.1292 169.867C78.3539 169.806 78.561 169.682 78.7307 169.506C78.9078 170.215 79.1333 170.942 79.538 171.447C80.2015 172.408 81.8242 172.611 82.2665 171.027C82.3721 170.559 82.3883 170.071 82.3138 169.594C82.2394 169.118 82.0761 168.665 81.8345 168.265C81.4626 167.623 80.5715 166.823 80.9458 166.355C81.0107 166.259 81.1728 166.283 81.4493 166.316C81.5875 166.357 81.7285 166.384 81.8709 166.398C82.102 167.38 82.4845 168.309 83.0011 169.142C84.0041 170.705 85.1863 172.002 86.3196 173.372C86.9834 174.156 87.9222 175.416 88.9148 174.432C89.101 174.223 89.2213 173.951 89.2576 173.659C89.8088 174.08 90.3763 174.52 91.0411 174.506C91.9989 174.545 92.3593 173.127 92.2969 172.027C92.2887 171.968 92.2887 171.908 92.2969 171.849C92.9292 172.194 93.6102 172.333 94.1487 171.448C95.0784 169.584 94.6474 166.29 93.2697 165.326C93.1724 165.249 93.0589 165.197 92.9616 165.12C93.0542 164.975 93.1157 164.808 93.1413 164.633C93.3221 163.658 92.7883 162.814 92.2048 162.441C91.8319 162.243 91.4265 162.27 91.02 162.253C91.0007 162.091 90.9319 161.943 90.8255 161.833C90.4039 161.396 89.8526 161.33 89.3338 161.216C90.097 161.101 90.7473 160.756 91.1708 160.084C91.3118 159.828 91.4114 159.546 91.4649 159.251C92.2281 159.18 93.0241 159.017 93.6749 158.407C94.358 157.881 94.7664 156.745 94.4436 155.898C94.8523 155.752 95.2252 155.502 95.533 155.167C96.7377 153.78 96.4982 151.969 95.2016 151.019C94.9519 150.83 94.6787 150.684 94.3909 150.585C95.4968 149.742 96.7492 148.77 96.9969 146.9C97.1776 146.014 96.9524 145.11 96.4502 144.617C95.299 143.671 93.8052 144.029 92.4564 144.569C92.6218 144.208 92.7168 143.811 92.7351 143.405C92.8029 142.112 91.7172 141.246 90.8401 141.441C90.3264 141.535 89.841 141.769 89.426 142.122L89.4098 142.146C89.4131 140.727 88.471 140.886 87.511 141.822C86.5837 142.622 85.8505 143.797 85.2633 145.065C84.9885 144.499 84.4688 144.607 84.0291 145.17L83.948 145.291C84.1933 144.485 84.1789 143.711 83.4003 143.363C83.3025 143.317 83.198 143.293 83.0922 143.29C83.4841 142.311 83.8438 141.248 83.6513 140.208C83.4262 139.171 82.4515 139.201 81.8339 139.763C81.8272 139.777 81.8179 139.789 81.8067 139.798C81.7955 139.807 81.7826 139.813 81.769 139.816C81.8191 139.211 81.9342 138.599 81.7569 138.066C81.3698 136.872 80.1854 136.55 79.3716 137.447C79.2814 137.543 79.1996 137.65 79.1275 137.764C77.8466 137.277 76.786 139.334 76.5063 140.941C76.1983 140.557 75.8416 140.335 75.403 140.632C74.4436 141.302 74.0992 142.873 74.0149 144.191C73.9899 144.501 73.9892 144.812 74.0128 145.122C73.8443 145.181 73.6918 145.287 73.5694 145.43C73.4471 145.572 73.3588 145.747 73.3128 145.938C72.8206 148.259 74.1469 150.403 74.7763 152.077C74.9515 152.558 75.0969 153.051 75.2113 153.554C74.8419 153.242 74.3929 153.071 73.9304 153.067C73.6936 153.07 73.4652 153.166 73.2842 153.338C73.1032 153.509 72.9809 153.746 72.938 154.007C72.9119 154.33 72.9734 154.655 73.1144 154.939C73.2511 155.342 73.4359 155.722 73.6639 156.069C73.9557 156.477 74.2302 156.909 74.554 157.313C74.4385 157.348 74.3323 157.414 74.245 157.506C73.7402 158.165 74.2576 159.122 74.5323 159.687C74.7018 159.965 74.9035 160.216 75.1322 160.434C75.0656 161.152 76.1018 162.4 76.4095 162.695C76.5726 162.865 76.746 163.022 76.9284 163.164C75.3657 164.95 73.8678 166.816 72.4185 168.742C72.3355 168.873 72.243 168.995 72.1417 169.108C72.0069 169.023 71.8658 168.952 71.7201 168.893C71.511 168.801 71.3145 168.675 71.1364 168.521C70.423 167.987 69.8899 166.92 70.3634 165.778C70.5594 165.266 71.1291 164.599 71.3741 163.927C71.4275 163.738 71.4438 163.539 71.4218 163.342C71.3999 163.146 71.3402 162.957 71.2469 162.789C71.5572 162.02 72.3055 161.353 72.5347 160.483C72.5693 160.317 72.5619 160.142 72.5136 159.98C72.4653 159.818 72.3778 159.674 72.2609 159.564C72.3744 159.306 72.5055 159.024 72.6198 158.767C73.1416 157.728 73.3406 155.975 72.1226 156.145C72.0577 156.153 72.0091 156.181 71.9442 156.189C72.1594 154.412 72.9605 151.943 71.2083 151.447C71.0792 151.425 70.948 151.426 70.8191 151.45C71.0484 150.58 71.3427 149.657 71.1499 148.75C70.9422 147.29 69.5783 147.411 68.765 148.086C68.5848 148.231 68.4209 148.4 68.2768 148.589C68.0848 147.282 67.6493 146.071 66.594 146.133C64.6126 146.418 63.6973 149.099 63.4809 151.497C63.4647 151.61 63.4647 151.699 63.4485 151.811C63.3966 151.79 63.3413 151.782 63.2863 151.787C62.7188 151.7 62.1325 152.26 61.7577 152.859C60.91 154.38 61.1977 156.384 61.6327 157.905C61.6489 157.969 61.6813 158.01 61.6975 158.074C61.2096 158.399 60.9968 159.245 61.0926 159.899C61.1696 160.33 61.3355 160.735 61.5771 161.081C61.7622 161.354 62.0007 161.575 62.2742 161.728C62.2562 161.892 62.2731 162.059 62.3235 162.215C62.374 162.371 62.4565 162.511 62.5645 162.624C63.0023 163.169 63.7157 163.526 64.1037 163.966C64.3256 164.287 64.5256 164.625 64.7021 164.98C63.9864 165.598 63.4969 166.633 63.8515 167.742C64.4151 169.78 66.0681 171.086 67.7085 170.865C68.5205 170.767 69.3339 170.003 69.951 169.884C70.2105 169.852 70.4699 170.043 70.6482 170.354C70.7455 170.519 70.7942 170.668 70.859 170.794C69.3767 172.901 67.9431 175.114 66.8496 177.618C66.4581 178.464 66.099 179.349 65.7397 180.235C64.9593 180.773 64.2451 180.682 63.662 180.044C63.0793 179.272 63.2933 177.983 63.1824 176.777C63.1201 176.232 62.9371 175.713 62.6501 175.268C62.342 174.973 61.888 174.806 61.4979 175.031C61.4195 174.659 61.2385 174.324 60.9807 174.074C60.4619 173.605 59.7475 173.736 59.4537 174.437C59.097 173.992 58.6916 173.665 58.1728 173.639C57.3613 173.516 56.7103 174.215 56.6432 175.199C56.2394 175.178 55.8404 175.304 55.5059 175.558C54.4488 176.373 53.9244 178.476 54.7011 179.667L54.7335 179.708C54.0663 180.387 53.7226 181.648 54.7935 181.872C55.2277 181.934 55.6687 181.873 56.0765 181.695C55.9011 182.166 55.8223 182.676 55.8459 183.186C55.8457 183.436 55.9182 183.68 56.0526 183.88C56.1869 184.079 56.3756 184.224 56.5901 184.293C56.8982 184.366 57.2397 184.258 57.5484 184.155C57.616 184.123 57.6811 184.086 57.743 184.042C57.7397 185.461 58.8102 185.907 60.0453 185.048C60.1558 184.965 60.2593 184.871 60.3545 184.767C60.5907 184.834 60.8365 184.845 61.0767 184.801C61.317 184.756 61.5465 184.657 61.7512 184.509C62.0602 184.273 62.2723 183.825 62.4518 183.427C62.8599 182.469 62.8142 181.166 63.5445 181.277C63.8746 181.28 64.1986 181.378 64.4849 181.562C64.6956 181.648 64.8902 181.934 65.1172 181.818C64.9865 182.189 64.8394 182.583 64.725 182.974C64.685 182.997 64.6513 183.031 64.6277 183.074C64.3488 184.283 63.3577 184.691 62.6088 185.624C62.1545 186.184 61.81 186.845 61.5976 187.564C61.5609 187.675 61.5338 187.79 61.5166 187.906C60.963 188.594 60.36 189.576 60.6829 190.379C60.7536 190.525 60.8469 190.657 60.9585 190.767C60.8221 191.357 60.7822 191.97 60.8408 192.576C60.8716 193.326 60.9671 194.112 61.2583 194.565C60.5272 194.808 59.9636 192.816 58.7622 192.828C58.6075 192.802 58.4496 192.816 58.3005 192.869C58.1513 192.922 58.0147 193.012 57.901 193.132C56.8147 192.798 55.9805 195.182 56.8381 196.475C57.0318 196.712 57.287 196.875 57.5677 196.94C57.5438 197.11 57.5602 197.284 57.6154 197.444C57.9234 197.917 58.4585 197.785 58.8977 197.533C59.1563 198.033 59.757 198.071 60.1796 197.798C60.57 197.485 60.8148 196.901 61.1244 196.442C61.2379 196.229 61.5313 195.972 61.58 195.988L61.9205 195.88C61.6548 197.976 61.5505 200.094 61.6087 202.211C61.6996 205.036 62.1479 207.775 62.7265 210.408C63.3045 213.219 64.2726 215.85 65.6313 218.035C66.0197 218.653 66.4404 219.267 66.8612 219.836C66.898 219.9 66.9535 219.949 67.0184 219.973C67.0833 219.998 67.1537 219.996 67.2179 219.97C67.8348 220.028 67.8363 219.674 67.5447 219.399V219.399ZM79.9432 157.456C79.9827 156.315 80.3305 155.214 80.9407 154.299C81.0168 154.175 81.1041 154.061 81.2012 153.957C81.0848 155.19 81.0332 156.416 80.9656 157.621C80.9321 158.112 80.9146 158.624 80.881 159.116C80.7513 159.264 80.6044 159.393 80.4906 159.518C80.4566 159.486 80.4336 159.441 80.4257 159.393C80.1325 158.798 79.9673 158.135 79.9432 157.456V157.456ZM81.443 161.907C81.116 161.652 80.8403 161.323 80.6334 160.941C80.5604 160.806 80.4954 160.666 80.4388 160.521C80.4875 160.538 80.5686 160.506 80.6172 160.521C80.8928 160.466 80.9901 160.454 81.2831 160.418C81.8593 160.338 82.441 160.319 83.0204 160.363C83.9294 160.43 85.3246 160.881 86.7203 161.156L86.4284 161.191C85.3562 161.454 84.1534 162.087 83.2278 162.177C82.5137 162.176 81.9941 162.239 81.443 161.907V161.907Z" fill="#319991"/>
<path id="Vector_6" d="M72.563 205.456C71.6756 205.493 70.7869 205.459 69.9038 205.355C67.0855 205.085 64.5771 204.215 61.7513 202.754C56.537 200.239 51.8745 196.493 48.0855 191.774C48.5052 192.033 48.8742 192.332 49.3022 192.626C49.8597 193.092 50.4279 193.088 51.0044 193.12C51.4628 193.16 51.958 193.486 52.5049 193.519C53.3382 193.497 53.8472 192.595 53.5948 191.638C54.2488 191.231 54.6483 190.373 54.5348 189.371C54.4045 188.55 53.9864 187.785 53.5183 187.061C53.388 186.889 53.259 186.718 53.1376 186.582C53.6429 186.438 54.1075 186.117 54.0602 185.398C54.0365 184.137 53.0273 183.017 52.0453 182.401C51.6516 182.149 51.2331 181.949 50.798 181.804L50.8192 181.766C51.0973 180.772 49.8889 179.955 49.132 179.792C48.4976 179.601 47.8418 179.514 47.1849 179.533C47.1105 179.353 46.9814 179.209 46.8205 179.125C45.9187 178.467 44.8403 178.724 44.1437 179.206C43.2574 179.773 42.5116 180.945 41.7195 181.145C41.3639 181.197 41.0021 181.148 40.6681 181.003C40.6099 180.997 40.5536 180.977 40.5041 180.942C40.3969 180.726 40.2784 180.518 40.1493 180.317C38.3215 176.838 36.7957 173.625 35.7552 170.054C36.0465 170.241 36.3254 170.45 36.59 170.681C37.2773 171.318 38.0058 172.133 38.8522 172.037C39.9212 171.998 40.6247 170.902 40.0245 169.609C39.7037 168.874 39.0919 168.303 38.7924 167.531C38.7001 167.303 38.6252 167.067 38.5683 166.825C39.2319 167.103 39.9264 168.028 40.3936 168.753C41.6812 170.683 41.7842 173.058 43.0665 175.096C43.6696 175.883 44.3052 175.658 44.5647 175.098C45.0586 175.677 45.5231 176.258 46.1232 176.648C47.7183 177.582 49.2021 177.009 49.7015 175.422C50.2132 175.819 50.7248 176.216 51.2754 176.393C52.4894 176.849 53.8968 176.461 54.2478 175.137C54.3576 174.601 54.3412 174.043 54.2003 173.516C55.7386 173.949 57.6178 175.333 58.8103 174.021C59.237 173.667 59.4207 173.04 59.3227 172.361C59.6175 172.211 59.8952 172.022 60.15 171.798C60.5738 171.299 60.7027 170.569 60.6766 169.813C60.5239 167.225 58.2808 165.435 56.3273 164.634C56.2895 164.601 56.26 164.603 56.2224 164.57C56.2352 164.497 56.2859 164.457 56.299 164.384C56.8029 161.786 53.6873 161.14 52.2047 161.461L51.9984 161.475C51.8843 159.571 49.8915 159.242 48.383 159.71C48.1048 159.8 47.8101 159.822 47.5319 159.914C47.4959 159.447 47.3302 159.005 47.0578 158.648C46.4011 157.756 45.3698 157.829 44.6991 158.165C44.302 158.396 43.9235 158.664 43.5677 158.967C43.5008 158.776 43.3852 158.612 43.2354 158.495C43.0855 158.377 42.908 158.311 42.7248 158.304C41.9425 158.287 41.3376 158.907 40.9558 159.584C40.8368 159.845 40.7473 160.104 40.6365 160.4C40.2075 160.358 39.7373 161.041 39.5336 161.452C38.9397 162.505 38.729 163.53 37.885 164.023C37.113 164.438 36.2432 164.175 35.306 163.88C34.9283 163.741 34.5593 163.574 34.2015 163.38C33.5631 160.25 33.0887 157.18 32.6943 154.068C33.3149 154.383 33.8937 154.791 34.4142 155.282C35.5166 156.287 37.3968 158.572 38.3373 156.953C38.4555 156.668 38.5061 156.354 38.484 156.04C39.2231 156.386 40.0129 156.69 40.7494 156.638C42.0709 156.654 43.4712 155.075 42.4555 153.415C42.136 152.95 41.7318 152.566 41.2696 152.287C40.8074 152.009 40.2976 151.843 39.7737 151.8C38.9451 151.714 37.5884 152.062 37.474 151.312C37.4414 151.17 37.5847 151.016 37.8215 150.746C37.9607 150.629 38.0908 150.5 38.2104 150.358C39.2221 150.849 40.3033 151.14 41.4048 151.215C43.4958 151.32 45.4956 151.035 47.521 150.856C48.6915 150.738 50.476 150.684 50.3871 148.886C50.35 148.53 50.2096 148.198 49.9873 147.94C50.763 147.668 51.5683 147.395 52.0593 146.675C52.817 145.683 51.8809 144.234 50.8953 143.473C50.8391 143.438 50.7882 143.392 50.7444 143.339C51.5164 142.924 52.1504 142.302 51.8025 141.063C50.9167 138.672 47.7821 136.656 45.9189 137.401C45.7798 137.447 45.649 137.528 45.5099 137.574C45.4566 137.367 45.3609 137.176 45.2304 137.016C44.536 136.091 43.4127 136.026 42.6537 136.368C42.2022 136.617 41.9183 137.07 41.5966 137.489C41.4448 137.388 41.266 137.35 41.0914 137.38C40.4007 137.501 39.927 138.04 39.4368 138.506C39.9163 137.607 40.1141 136.654 39.8617 135.698C39.7495 135.355 39.584 135.037 39.3727 134.758C39.89 133.891 40.3529 132.92 40.3244 131.768C40.3927 130.644 39.7334 129.356 38.7668 129.063C38.9519 128.518 39.0209 127.932 38.968 127.353C38.6965 125.026 36.9717 123.921 35.1802 124.589C34.8305 124.713 34.4993 124.895 34.1973 125.127C34.3148 123.314 34.4334 121.249 33.0269 119.58C32.4076 118.722 31.4672 118.283 30.6669 118.448C28.9897 118.963 28.165 120.825 27.6055 122.669C27.4222 122.221 27.1555 121.822 26.8232 121.497C25.7716 120.453 24.2122 120.96 23.7152 122.042C23.4073 122.661 23.2394 123.354 23.2262 124.062L23.2345 124.098C22.0273 123.028 21.4499 124.152 21.5222 125.878C21.5025 127.467 21.9496 129.132 22.5864 130.711C21.8968 130.579 21.5953 131.214 21.7428 132.105L21.784 132.283C21.2828 131.416 20.612 130.85 19.7259 131.418C19.613 131.488 19.5127 131.581 19.4301 131.691C18.8922 130.538 18.2579 129.356 17.2253 128.779C16.1713 128.24 15.4597 129.301 15.4716 130.383C15.4782 130.4 15.4812 130.419 15.4804 130.438C15.4796 130.457 15.475 130.475 15.4669 130.492C14.9895 129.984 14.5542 129.402 13.9661 129.19C12.6553 128.705 11.4851 129.726 11.6339 131.267C11.6482 131.436 11.6771 131.604 11.7201 131.766C10.3348 132.765 11.287 135.442 12.446 136.948C11.8862 136.987 11.4266 137.2 11.3477 137.891C11.1937 139.417 12.2724 140.966 13.3323 142.046C13.5774 142.305 13.8425 142.54 14.1245 142.747C14.0474 142.971 14.0221 143.213 14.0512 143.451C14.0803 143.689 14.1628 143.914 14.2909 144.107C15.897 146.375 18.7281 146.573 20.6319 147.16C21.1739 147.334 21.7045 147.55 22.2198 147.806C21.674 147.965 21.1884 148.315 20.8345 148.805C20.6584 149.06 20.5673 149.376 20.5766 149.697C20.586 150.019 20.6952 150.327 20.8856 150.57C21.1416 150.84 21.4649 151.019 21.8133 151.081C22.2602 151.239 22.7242 151.327 23.1925 151.345C23.7606 151.341 24.3369 151.373 24.9263 151.331C24.8686 151.48 24.8447 151.643 24.8568 151.805C25.0374 152.839 26.2445 153.006 26.934 153.138C27.2989 153.166 27.6656 153.141 28.0244 153.061C28.5855 153.671 30.4337 153.505 30.9181 153.398C31.186 153.352 31.4506 153.285 31.7102 153.198C32.0503 156.206 32.5088 159.205 33.0546 162.197C33.1031 162.384 33.1374 162.574 33.1573 162.767C32.9829 162.847 32.8149 162.944 32.6552 163.055C32.4178 163.209 32.1623 163.324 31.8961 163.398C30.902 163.756 29.5895 163.525 28.9728 162.16C28.6849 161.567 28.5469 160.458 28.1588 159.692C28.0384 159.493 27.8808 159.326 27.6968 159.202C27.5129 159.078 27.3069 159 27.0933 158.973C26.6723 158.065 26.6695 156.766 26.1012 155.867C25.9852 155.705 25.8312 155.581 25.6563 155.511C25.4813 155.44 25.2922 155.425 25.1099 155.467C24.9766 155.152 24.8352 154.801 24.7025 154.486C24.2119 153.15 22.8678 151.621 22.0914 153.047C22.049 153.122 22.036 153.195 21.9936 153.27C20.6408 151.706 19.1426 148.996 17.3936 150.491C17.2778 150.613 17.1793 150.754 17.1014 150.909C16.5331 150.011 15.9695 149.004 15.05 148.527C13.6483 147.652 12.7193 149.197 12.68 150.571C12.6672 150.872 12.6871 151.173 12.7392 151.469C11.4802 150.692 10.1186 150.247 9.37267 151.418C8.11674 153.743 9.71102 156.735 11.5913 158.767C11.6751 158.869 11.7506 158.936 11.8343 159.039C11.777 159.078 11.7279 159.131 11.6906 159.193C11.1873 159.734 11.2206 160.778 11.4482 161.628C12.1039 163.675 14.0302 164.874 15.6558 165.553C15.7231 165.585 15.7819 165.581 15.8492 165.612C15.7573 166.376 16.3175 167.239 16.9469 167.628C17.3727 167.87 17.8434 167.997 18.3213 168C18.6937 168.008 19.0627 167.92 19.3999 167.744C19.6592 168.086 20.0588 168.13 20.383 168.107C21.1785 168.051 22.0224 167.559 22.692 167.475C23.133 167.479 23.5731 167.521 24.0085 167.599C23.9947 168.827 24.5064 170.126 25.7198 170.581C27.8829 171.511 30.2473 170.731 31.2995 168.817C31.8296 167.877 31.7941 166.436 32.1594 165.689C32.329 165.388 32.6873 165.254 33.0869 165.298C33.3014 165.319 33.4653 165.38 33.6208 165.405C34.2969 168.569 35.099 171.76 36.407 174.807C36.8315 175.861 37.3149 176.909 37.7985 177.957C37.6666 179.193 37.0488 179.886 36.0637 180.028C34.9652 180.069 34.0279 178.872 32.9162 178.084C32.4044 177.741 31.8237 177.546 31.2271 177.518C30.7426 177.624 30.257 177.983 30.1534 178.568C29.7769 178.372 29.3545 178.313 28.9464 178.4C28.1544 178.6 27.7255 179.461 28.1005 180.3C27.4521 180.346 26.8664 180.532 26.4516 181.066C25.7327 181.839 25.8367 183.058 26.6244 183.869C26.3008 184.283 26.1064 184.803 26.0702 185.351C25.9658 187.091 27.3617 189.23 28.9648 189.297L29.0238 189.293C29.0983 190.514 29.913 191.828 30.9144 190.855C31.2954 190.439 31.5769 189.923 31.7333 189.354C32.0026 189.895 32.3772 190.362 32.8297 190.72C33.0429 190.908 33.3053 191.014 33.5772 191.021C33.8491 191.027 34.1156 190.935 34.3361 190.758C34.6319 190.485 34.798 190.04 34.9429 189.633C34.9678 189.537 34.9851 189.439 34.9947 189.34C36.2019 190.41 37.3923 189.604 37.5946 187.641C37.6074 187.461 37.6055 187.28 37.5887 187.1C37.8241 186.899 38.0197 186.645 38.1636 186.356C38.3075 186.066 38.3965 185.747 38.4252 185.418C38.4569 184.91 38.2364 184.348 38.0324 183.857C37.524 182.703 36.3794 181.773 37.0263 181.078C37.278 180.728 37.6068 180.456 37.9809 180.289C38.2131 180.128 38.6044 180.137 38.6775 179.807C38.8944 180.225 39.1196 180.678 39.3661 181.093C39.3552 181.153 39.3593 181.216 39.3779 181.273C40.1974 182.478 39.7957 183.842 40.0247 185.342C40.1588 186.247 40.4617 187.111 40.9139 187.878C40.9805 188.001 41.0575 188.116 41.1438 188.223C41.3116 189.329 41.6924 190.71 42.6214 190.969C42.7997 191.004 42.982 191.004 43.1601 190.967C43.56 191.556 44.0525 192.06 44.6137 192.453C45.2762 192.983 46.0189 193.472 46.6247 193.502C46.2797 194.464 44.1543 193.568 43.2562 194.858C43.1174 195.003 43.0099 195.182 42.942 195.381C42.8741 195.579 42.8474 195.793 42.8641 196.004C41.7575 196.912 43.1594 199.592 44.9098 199.649C45.2585 199.621 45.5903 199.471 45.8586 199.221C45.9852 199.374 46.1458 199.487 46.3242 199.548C46.9598 199.576 47.2532 198.905 47.3696 198.248C47.992 198.348 48.4786 197.736 48.5657 197.081C48.5939 196.429 48.2813 195.729 48.1245 195.055C48.0288 194.773 48.0311 194.268 48.0818 194.228L48.2479 193.783C49.8359 195.64 51.5645 197.341 53.4144 198.868C55.8925 200.894 58.566 202.474 61.2492 203.836C64.0831 205.332 67.0583 206.277 69.9484 206.47C70.7689 206.52 71.6108 206.533 72.4143 206.512C72.4974 206.522 72.5809 206.499 72.6508 206.448C72.7208 206.397 72.7729 206.321 72.7986 206.233C73.3199 205.619 73.018 205.352 72.563 205.456V205.456ZM29.1307 145.695C28.1873 144.795 27.5116 143.596 27.1933 142.259C27.1455 142.085 27.1139 141.905 27.099 141.724C28.0622 142.775 29.0678 143.75 30.0439 144.728C30.4378 145.133 30.8609 145.536 31.2548 145.942C31.283 146.192 31.2819 146.445 31.3021 146.66C31.2492 146.672 31.1941 146.663 31.1464 146.635C30.4179 146.501 29.7276 146.178 29.1307 145.694V145.695ZM34.0592 147.44C33.5945 147.597 33.1055 147.644 32.6235 147.577C32.4534 147.553 32.2849 147.517 32.1191 147.468C32.1698 147.429 32.2039 147.318 32.2545 147.278C32.4159 146.942 32.4796 146.829 32.6705 146.491C33.0375 145.816 33.4617 145.182 33.9372 144.598C34.682 143.679 36.1221 142.531 37.4114 141.249C37.3476 141.362 37.284 141.474 37.2204 141.587C36.6337 142.928 36.264 144.686 35.6406 145.74C35.0986 146.5 34.7592 147.101 34.0592 147.439V147.44Z" fill="#359F90"/>
<path id="Vector_7" d="M60.7887 197.384C61.3362 196.58 61.9194 195.978 62.4819 195.078C62.498 195.053 62.5141 195.004 62.5314 194.978C64.0555 193.86 65.865 192.583 67.3671 191.097C69.7366 188.734 71.776 185.77 73.6098 182.653C75.9585 178.852 77.7408 174.51 78.9949 169.925C79.4739 167.922 81.0526 163.542 79.929 161.972C78.8339 161.164 76.0223 163.386 74.9346 164.25C70.566 167.936 67.0039 172.706 64.5227 178.193C62.8845 181.978 62.3737 186.449 62.8892 190.507C62.9536 191.427 63.0545 192.573 62.8812 193.46C62.7562 193.943 62.5689 194.402 62.3252 194.824C62.2945 194.847 62.2664 194.875 62.2418 194.906C62.2209 194.942 62.2097 194.984 62.2096 195.027C61.8831 195.519 61.528 195.985 61.1467 196.423C61.047 196.554 60.9478 196.709 60.8481 196.84C60.8874 196.044 60.9267 195.248 60.9488 194.431C60.9502 191.014 60.631 187.67 60.3456 184.32C60.2186 182.55 60.0743 180.76 59.8965 178.997C61.0103 177.595 62.1766 176.299 63.187 174.772C65.3099 171.6 67.1651 168.211 68.7283 164.647C70.7396 159.759 73.1909 154.85 73.8391 149.335C73.8731 148.168 73.9635 146.225 73.0766 145.757C72.8725 145.695 72.6543 145.822 72.453 145.945L71.1447 146.774C69.9368 147.466 68.8354 148.373 67.8826 149.461C64.0037 153.962 61.0732 160.85 60.1363 167.502C59.7565 170.512 59.8511 173.543 59.5898 176.558V176.581C59.5336 176.194 59.4771 175.808 59.4043 175.447C58.8521 172.371 58.0137 169.409 57.4614 166.333C57.1682 164.774 56.8913 163.19 56.5981 161.631V161.608C56.6048 160.91 56.5969 160.353 56.7408 159.773C57.0145 158.801 57.7615 157.78 58.3217 156.718C59.5903 154.314 60.4484 151.603 61.4435 149.009C63.0218 144.63 64.4808 140.152 65.259 135.431C65.4614 134.298 65.5976 133.151 65.6665 131.998C65.7961 130.421 64.8186 130.71 64.0658 131.338C62.5582 132.51 61.2199 133.938 60.0984 135.573C59.1051 137.121 58.4557 139.01 57.8219 140.851C56.8966 143.596 56.0065 146.429 55.6595 149.364C55.5062 151.054 55.5309 152.759 55.7329 154.443C55.8384 155.891 56.1959 157.207 56.5032 158.555C56.5737 158.753 56.5615 159.08 56.6482 159.276C56.545 159.532 56.4693 159.801 56.4227 160.077L56.3781 160.503C56.1592 159.421 55.9408 158.362 55.6886 157.308C55.0444 154.897 54.2513 152.718 53.5916 150.402C52.9706 148.429 52.2321 146.521 51.5777 144.576C51.5898 144.533 51.606 144.491 51.626 144.452C51.6954 144.289 51.7722 144.13 51.8562 143.975C52.3688 143.129 53.0019 142.427 53.5488 141.623C54.2785 140.581 55.0427 139.581 55.7036 138.456C56.3964 137.203 57.022 135.904 57.5771 134.566C58.9057 131.619 59.7217 128.356 60.3005 125.06C60.5036 123.89 60.5885 122.738 60.7259 121.694C60.7867 121.22 60.8473 120.722 60.8744 120.253C60.8713 120.045 60.8673 119.766 60.7133 119.674C60.5086 119.566 60.3268 119.849 60.1765 120.012C59.7935 120.443 59.41 120.85 59.0262 121.235C57.9905 122.184 56.8681 122.984 55.9368 124.15C54.1773 126.273 52.9219 128.864 52.2878 131.684C51.8633 133.934 51.9808 136.217 51.9792 138.448C51.9642 139.752 51.9663 141.076 51.7633 142.247C51.6702 142.842 51.5264 143.422 51.3996 144.022C50.989 142.774 50.6373 141.501 50.3459 140.21C50.2914 139.948 50.2538 139.682 50.2332 139.414C50.2775 139.324 50.3049 139.225 50.3137 139.123C50.3432 138.894 50.3909 138.669 50.4564 138.45C50.7598 137.195 51.1312 135.952 51.2988 134.671C51.4172 133.491 51.2827 132.326 51.2315 131.172C51.1047 129.048 50.848 126.936 50.4631 124.852C49.4064 119.948 48.0193 115.142 46.3139 110.477C46.1397 110.131 45.8791 108.498 45.4964 108.952C45.0875 109.945 44.8672 111.094 44.5607 112.141C43.2632 117.244 43.4605 122.699 44.5628 127.527C44.8938 128.947 45.2983 130.344 45.7742 131.71C46.2848 133.072 46.9626 134.293 47.5731 135.547C48.1489 136.737 48.7749 137.897 49.5669 138.82C49.6603 138.939 49.7639 139.048 49.8763 139.144C50.0426 140.624 50.3416 142.081 50.7685 143.493C48.8308 140.583 47.6355 136.351 44.8993 134.424C43.6673 133.498 42.2719 132.992 40.8462 132.723C39.7674 132.454 38.6558 132.397 37.5599 132.554C37.02 132.684 36.4438 132.633 35.9412 132.989C35.2598 133.861 36.1926 135.158 36.6242 135.743C37.452 136.801 38.4619 137.575 39.4375 138.332C40.3107 139.011 41.1502 139.718 42.0727 140.297C41.8012 142.593 41.4965 144.941 41.8685 147.255C42.561 151.89 44.6707 156.097 47.7959 158.011C48.752 158.584 49.8201 158.699 50.8558 158.912C51.4646 159.022 52.0424 159.291 52.5429 159.698C53.4861 160.553 54.4629 161.379 55.5374 161.934C55.6187 161.985 55.7043 162.026 55.793 162.057C56.1634 164.208 56.4987 166.388 56.9021 168.534C57.4875 171.558 58.2242 174.513 58.6078 177.638C58.6854 178.324 58.763 179.009 58.8234 179.674C57.5028 176.158 56.5338 172.332 54.8122 169.157C53.6688 167.093 52.3663 165.146 50.9197 163.341C49.9386 162.214 48.9216 160.952 47.645 160.451C45.5008 159.665 43.1567 160.281 41.0082 160.356C40.4197 160.633 40.9096 161.742 41.0349 162.211C41.902 164.821 43.4033 166.798 44.8865 168.708C46.3532 170.644 47.7371 172.686 49.3525 174.39C50.5577 175.785 52.0098 176.701 53.4773 177.521C54.5357 178.148 55.5287 178.925 56.5383 179.676C57.2916 180.249 58.0989 180.725 58.9455 181.096C59.0685 182.588 59.1745 184.059 59.2806 185.553C59.5084 188.424 59.7155 191.041 59.7572 193.94C59.7631 195.52 59.7011 197.087 59.6053 198.659C58.5263 197.779 58.01 196.022 57.4105 194.371C56.5475 192.04 55.4669 189.882 54.3532 187.775C53.2225 185.671 51.9605 183.843 50.8319 181.879C49.2851 179.095 47.6551 176.394 45.7924 174.007C44.9305 172.931 43.919 172.041 42.7615 171.592C41.9593 171.134 41.8862 171.935 42.0011 172.847C42.7243 177.222 42.9609 181.88 44.4401 185.86C45.0184 187.461 45.7028 189.011 46.4875 190.496C47.0275 191.552 47.5847 192.628 48.3073 193.47C50.1486 195.557 52.42 196.951 54.7513 197.801C55.5686 198.14 56.432 198.147 57.2959 198.154C57.7091 198.168 58.1226 198.135 58.5301 198.057L58.6147 198.044C58.7838 198.311 58.9805 198.554 59.2006 198.767C59.3177 198.885 59.4438 198.99 59.5776 199.081C59.3677 202.018 58.98 204.936 58.4171 207.813C58.2529 206.999 58.0028 206.21 57.6722 205.464C57.2991 204.717 56.7663 204.087 56.1225 203.633C54.6373 202.769 53.1124 202.655 51.6776 201.76C50.432 201.068 49.4873 200.098 48.4046 198.986C47.7173 198.278 47.029 197.501 46.1775 197.144C44.7474 196.574 43.155 197.655 41.937 198.888C41.487 199.376 41.0201 199.866 40.6046 200.395C40.2239 200.988 40.5207 201.616 40.848 202.007C41.5366 202.808 42.4061 203.232 43.2909 203.561C44.3324 203.949 45.3559 204.397 46.3572 204.902C47.5519 205.579 48.781 206.296 50.1781 205.756C50.9867 205.492 51.708 204.986 52.4327 204.828C53.9703 204.638 55.2466 206.278 56.4513 207.651C56.8221 208.066 57.2727 208.378 57.7679 208.564C57.9302 208.632 58.1051 208.653 58.2765 208.625C57.8347 210.855 57.4271 213.102 56.8493 215.283C56.7849 215.525 56.7849 215.479 56.7044 215.747V215.793C56.7044 215.816 56.7044 215.816 56.6883 215.842V215.865C56.6721 215.961 56.7077 216.047 56.7757 216.061C56.9738 216.071 57.171 216.025 57.3492 215.926C57.588 216.052 57.8571 214.756 57.9224 214.583C58.2916 213.202 58.6097 211.781 58.9281 210.384C59.295 210.369 59.6559 210.275 59.991 210.105C60.2982 209.914 60.5797 209.675 60.827 209.395C60.8621 209.482 60.9803 209.464 61.0813 209.425C61.6211 209.296 62.1809 209.372 62.7895 209.325C63.4927 209.255 64.1917 209.14 64.8831 208.979C66.5864 208.532 68.2152 207.63 69.7904 206.528C72.5121 204.769 74.8628 202.361 76.6794 199.472C77.3236 198.374 78.0183 197.244 78.3035 195.899C78.3502 195.613 78.4465 195.249 78.2911 195.041C78.1357 194.832 77.8669 194.967 77.663 194.928C77.2833 194.938 76.9035 194.911 76.5278 194.847C75.1528 194.571 73.7612 194.319 72.3285 194.749C69.3949 195.549 65.5078 199.493 63.9008 203.087C63.1438 204.645 62.6628 206.438 61.8184 207.754C61.3573 208.424 60.8261 209.029 60.2364 209.554C59.8925 209.819 59.4901 209.969 59.0746 209.988L59.041 209.994C59.1681 209.416 59.2948 208.816 59.4219 208.239C60.0927 204.659 60.5494 201.033 60.7887 197.384V197.384ZM53.5984 160.117C53.5795 160.092 53.5561 160.072 53.5298 160.058C53.5436 159.846 53.3876 159.591 53.3848 159.36C53.2149 158.154 53.0618 156.922 52.6735 155.82C51.8945 153.453 50.8318 151.362 49.8022 149.219C48.8238 147.115 47.6453 145.205 46.5502 143.211L46.0284 142.246C46.4202 142.418 46.7951 142.592 47.1869 142.765C48.3465 143.308 49.4899 143.945 50.7284 144.196C50.7625 144.215 50.7962 144.209 50.8303 144.227C50.8645 144.245 50.882 144.289 50.9162 144.307L50.95 144.302C51.3233 145.546 51.7472 146.759 52.1201 147.98C52.6864 149.683 53.0977 151.2 53.563 152.942C54.0622 154.724 54.5586 156.252 54.9576 158.095C55.1936 159.198 55.3962 160.329 55.5814 161.439C54.8861 161.068 54.2223 160.625 53.5984 160.117V160.117Z" fill="#0BCEB2"/>
<path id="Vector_8" d="M66.6787 200.009C67.158 199.98 67.5835 200.069 68.1007 200.005C68.1156 200.004 68.1382 199.991 68.1533 199.99C69.1134 200.431 70.2369 200.979 71.3114 201.235C73.013 201.631 74.7877 201.54 76.5343 201.248C78.7079 200.962 80.8439 200.069 82.8579 198.729C83.711 198.1 85.7813 197.06 85.8731 195.623C85.7212 194.557 83.8966 193.817 83.189 193.533C80.3796 192.492 77.3495 192.462 74.5241 193.447C72.6296 194.173 70.9399 195.928 69.7837 198.139C69.5012 198.606 69.1574 199.203 68.7946 199.506C68.5906 199.649 68.363 199.745 68.1253 199.789C68.1062 199.78 68.086 199.776 68.0655 199.774C68.0444 199.779 68.0255 199.792 68.0126 199.811C67.7209 199.834 67.4279 199.826 67.1373 199.789C67.0555 199.787 66.9651 199.797 66.8829 199.795C67.1639 199.45 67.4448 199.105 67.7261 198.739C68.8674 197.152 69.8611 195.397 70.8697 193.661C71.4116 192.758 71.954 191.835 72.4742 190.904C73.3717 190.955 74.2531 191.088 75.1519 191.016C77.0293 190.881 78.883 190.473 80.6668 189.805C83.0736 188.802 85.6565 188.066 87.7475 185.912C88.1504 185.391 88.834 184.545 88.648 183.769C88.5834 183.629 88.4756 183.521 88.3448 183.463L87.5643 183.024C86.9019 182.596 86.1698 182.322 85.4111 182.216C82.4149 181.861 78.9858 183.215 76.4043 185.715C75.253 186.874 74.2776 188.341 73.1704 189.578L73.1627 189.589C73.2701 189.374 73.3773 189.158 73.4697 188.945C74.284 187.168 74.9502 185.263 75.7646 183.486C76.1721 182.577 76.5945 181.666 77.0019 180.756L77.0096 180.745C77.1957 180.454 77.4208 180.197 77.6771 179.983C78.1071 179.704 78.7358 179.7 79.3062 179.56C80.597 179.243 81.8328 178.524 83.0821 177.946C85.1524 176.906 87.2091 175.746 89.0853 174.042C89.55 173.635 89.9857 173.187 90.3884 172.704C90.9649 172.053 90.4915 171.572 89.9923 171.388C89.0542 170.989 88.0531 170.807 87.0502 170.855C86.1511 170.948 85.27 171.416 84.4114 171.872C83.1386 172.564 81.8499 173.319 80.7362 174.465C80.0913 175.184 79.531 175.993 79.0686 176.871C78.6266 177.61 78.324 178.447 77.9924 179.267C77.9535 179.403 77.8395 179.548 77.8078 179.694C77.6797 179.75 77.5602 179.827 77.4533 179.924L77.2941 180.094C77.5712 179.452 77.8407 178.823 78.0953 178.175C78.6519 176.648 79.0744 175.136 79.5934 173.644C80.013 172.336 80.3658 170.983 80.7632 169.667C80.782 169.655 80.8023 169.646 80.8235 169.641C80.9043 169.608 80.9871 169.583 81.0712 169.564C81.5511 169.494 82.0291 169.567 82.5084 169.538C83.1389 169.541 83.769 169.504 84.3957 169.425C85.0834 169.279 85.7591 169.069 86.4161 168.799C87.9117 168.267 89.3155 167.265 90.6389 166.099C91.1078 165.683 91.5252 165.201 91.9266 164.803C92.1084 164.621 92.2976 164.428 92.4648 164.227C92.5091 164.179 92.5437 164.122 92.5663 164.058C92.5888 163.994 92.5989 163.925 92.5958 163.857C92.5529 163.677 92.3882 163.694 92.276 163.675C91.9848 163.634 91.701 163.582 91.4246 163.518C90.7087 163.306 90.0092 162.97 89.2615 162.925C87.8697 162.804 86.4835 163.228 85.3409 164.125C84.4261 164.903 83.7092 166.038 82.9634 167.074C82.5223 167.671 82.0809 168.288 81.612 168.703C81.3773 168.921 81.1283 169.1 80.879 169.299C81.1275 168.539 81.4075 167.653 81.7467 166.863C81.8115 166.71 81.8858 166.562 81.9691 166.421C82.0178 166.406 82.0621 166.377 82.0973 166.337C82.1827 166.251 82.2764 166.176 82.3767 166.114C82.9128 165.722 83.4706 165.379 83.9629 164.89C84.4025 164.416 84.7393 163.789 85.1052 163.221C85.7793 162.129 86.3854 160.986 86.9195 159.8C88.1735 156.786 89.243 153.68 90.1207 150.503C90.1687 150.233 90.6139 149.31 90.3147 149.279C89.826 149.483 89.3573 149.878 88.8903 150.171C86.6867 151.725 84.9414 154.383 83.754 157.321C83.4021 158.205 83.0916 159.109 82.8237 160.029C82.5655 160.984 82.419 161.978 82.2353 162.946C82.042 163.857 81.9332 164.788 81.9104 165.723C81.9065 165.839 81.9102 165.954 81.9214 166.069C81.4796 166.889 81.1085 167.754 80.813 168.652C81.0381 166.079 81.991 163.359 81.5805 160.738C81.4086 159.572 81.0735 158.442 80.5875 157.393C80.2776 156.615 79.8705 155.891 79.3784 155.242C79.1272 154.962 78.9223 154.575 78.6099 154.424C78.0563 154.399 77.9823 155.59 77.9533 156.134C77.9462 157.132 78.0196 158.128 78.1724 159.111C78.2819 159.977 78.3689 160.835 78.5309 161.685C77.6598 162.581 76.7586 163.48 76.1294 164.789C74.8489 167.38 74.256 170.665 74.8207 173.524C74.9974 174.393 75.3705 175.12 75.6983 175.871C75.8996 176.319 76.0305 176.803 76.0855 177.3C76.1435 178.287 76.2796 179.267 76.4922 180.227C76.5064 180.301 76.5256 180.374 76.5495 180.445C75.9735 181.678 75.3753 182.903 74.814 184.154C74.0296 185.928 73.3267 187.766 72.431 189.46C72.232 189.827 72.0331 190.194 71.8345 190.54C72.4999 188.075 73.4038 185.686 73.8009 183.125C74.0521 181.42 74.2002 179.697 74.2439 177.969C74.2424 176.827 74.2721 175.599 73.9476 174.562C73.3843 172.845 72.2759 171.653 71.4236 170.333C71.1046 170.091 70.9227 170.915 70.8143 171.213C70.2771 172.971 70.1951 174.837 70.1285 176.659C70.0466 178.484 69.8981 180.305 69.9515 182.115C69.9497 183.523 70.2031 184.863 70.4944 186.17C70.6927 187.129 70.8156 188.116 70.9528 189.101C71.0512 189.839 71.2027 190.567 71.406 191.278C70.9553 192.049 70.5055 192.799 70.0471 193.561C69.1764 195.038 68.3822 196.385 67.4304 197.758C66.9053 198.496 66.3583 199.185 65.7966 199.855C65.6748 198.765 66.0625 197.624 66.3829 196.479C66.8109 194.838 67.1531 193.171 67.4076 191.487C67.6747 189.796 67.799 188.151 68.0203 186.527C68.3757 184.267 68.6053 181.984 68.708 179.692C68.7538 178.665 68.6317 177.637 68.3478 176.659C68.1917 175.941 67.8959 176.267 67.6356 176.763C66.4536 179.252 64.9892 181.565 64.23 184.347C63.9134 185.477 63.6598 186.627 63.4707 187.791C63.3028 188.622 63.205 189.469 63.1786 190.321C63.2088 192.397 63.5591 194.452 64.214 196.396C64.4268 197.027 64.7169 197.622 65.076 198.164C65.2259 198.424 65.3957 198.669 65.5836 198.896L65.6204 198.944C65.5962 199.178 65.5908 199.414 65.604 199.649C65.61 199.778 65.6235 199.906 65.6445 200.033C64.6066 201.242 63.4821 202.354 62.2822 203.358C62.4964 202.859 62.6631 202.335 62.7797 201.797C62.8854 201.194 62.8903 200.574 62.794 199.97C62.5106 198.632 61.9613 197.617 61.7075 196.297C61.4588 195.19 61.4188 194.143 61.3732 192.944C61.3448 192.182 61.3393 191.387 61.1307 190.684C60.7705 189.518 59.796 189.016 58.9153 188.822C58.579 188.755 58.2399 188.708 57.8992 188.682C57.5545 188.717 57.4589 189.196 57.4543 189.584C57.4737 190.36 57.6166 191.126 57.8764 191.846C58.1435 192.686 58.3953 193.527 58.6094 194.403C58.8437 195.47 59.0775 196.578 59.796 197.208C60.1955 197.595 60.6418 197.814 60.974 198.198C61.6289 199.08 61.5736 200.646 61.5798 202.043C61.5842 202.471 61.6525 202.895 61.7818 203.297C61.8187 203.426 61.8784 203.545 61.9573 203.647C61.0428 204.404 60.1354 205.191 59.1848 205.84C59.0792 205.912 59.0944 205.89 58.9737 205.964L58.9585 205.986C58.951 205.997 58.951 205.997 58.9359 205.998L58.9284 206.009C58.9093 206.026 58.8958 206.05 58.8901 206.077C58.8843 206.103 58.8866 206.131 58.8966 206.156C58.9629 206.278 59.054 206.38 59.1625 206.455C59.2124 206.664 59.749 206.231 59.8317 206.192C60.4352 205.783 61.0319 205.324 61.6209 204.875C61.757 205.089 61.9274 205.272 62.1233 205.415C62.2976 205.518 62.487 205.585 62.6823 205.613C62.6659 205.675 62.7182 205.741 62.7701 205.787C63.0211 206.068 63.2112 206.456 63.4612 206.818C63.75 207.222 64.0576 207.609 64.383 207.978C66.5066 210.068 69.2746 211.151 72.0999 210.997C72.7149 210.893 73.3595 210.806 73.9186 210.361C74.032 210.257 74.1905 210.149 74.2002 209.954C74.2099 209.759 74.0617 209.652 73.996 209.506C73.8441 209.266 73.7074 209.014 73.5867 208.753C73.1496 207.757 72.6973 206.763 72.0023 206.06C70.6054 204.582 67.7916 203.964 65.9727 204.621C65.1615 204.867 64.3769 205.397 63.6128 205.476C63.2042 205.496 62.7954 205.442 62.4023 205.315C62.1633 205.206 61.9576 205.021 61.81 204.784L61.7952 204.766C62.0369 204.577 62.2864 204.378 62.5279 204.19C64.009 202.922 65.397 201.524 66.6787 200.009V200.009ZM76.3517 178.161C76.3528 178.137 76.3506 178.113 76.3452 178.09C76.421 178 76.446 177.784 76.5222 177.674C76.8879 177.013 77.1921 176.311 77.4302 175.581C77.9206 173.99 78.2094 172.348 78.5283 170.704C78.854 169.11 79.038 167.478 79.2815 165.862L79.403 165.084C79.4963 165.411 79.5831 165.729 79.6757 166.055C79.941 167.038 80.1684 168.055 80.5618 168.953C80.569 168.983 80.5838 169.002 80.5908 169.032C80.5978 169.061 80.5908 169.093 80.5972 169.123L80.6119 169.141C80.3405 169.955 80.0985 170.786 79.8346 171.588C79.4842 172.736 79.1359 173.701 78.7336 174.803C78.331 175.946 78.0119 176.969 77.5497 178.077C77.2725 178.738 76.9729 179.391 76.6736 180.024C76.5295 179.412 76.422 178.789 76.3517 178.161Z" fill="#42C2B9"/>
<path id="Vector_9" fill-rule="evenodd" clip-rule="evenodd" d="M45.1826 207.644H78.0934C78.0934 207.644 75.83 212.43 73.6779 216.981C72.5281 219.412 70.7981 221.448 68.6758 222.869C66.5534 224.29 64.1196 225.041 61.6383 225.042C59.1571 225.041 56.7233 224.29 54.6009 222.869C52.4785 221.448 50.7486 219.412 49.5987 216.981C47.4459 212.429 45.1826 207.644 45.1826 207.644V207.644Z" fill="#B2B7F0"/>
<g id="Group">
<path id="Vector_10" fill-rule="evenodd" clip-rule="evenodd" d="M74.5242 207.832C69.048 207.606 49.8529 206.796 45.2712 207.832C43.3578 208.266 47.0312 214.057 47.0312 214.057C47.0312 214.057 73.5493 210.231 78.131 209.193C79.3747 208.912 75.793 207.886 74.5242 207.832Z" fill="black" fill-opacity="0.2"/>
</g>
<path id="Vector_11" fill-rule="evenodd" clip-rule="evenodd" d="M79.2089 203.716H44.0669V203.722C44.0669 204.458 44.1902 205.187 44.4298 205.867C44.6695 206.547 45.0208 207.165 45.4636 207.686C45.9064 208.207 46.4322 208.62 47.0108 208.901C47.5894 209.183 48.2095 209.328 48.8358 209.328H74.44C75.0662 209.328 75.6864 209.183 76.265 208.901C76.8436 208.62 77.3693 208.207 77.8122 207.686C78.255 207.165 78.6063 206.547 78.8459 205.867C79.0856 205.187 79.2089 204.458 79.2089 203.722V203.716Z" fill="#1A2283"/>
<g id="Group_2">
<g id="Group_3">
<path id="Vector_12" fill-rule="evenodd" clip-rule="evenodd" d="M198.384 29.642C198.281 29.7916 198.032 29.7168 197.692 29.4348C197.27 29.0581 196.893 28.622 196.571 28.1373L194.493 25.1211C194.14 24.6184 193.84 24.072 193.599 23.4928C193.405 22.9992 193.354 22.6374 193.457 22.4883C193.56 22.3387 193.809 22.4132 194.149 22.6951C194.571 23.0719 194.948 23.5082 195.27 23.993L197.348 27.0091C197.701 27.5119 198.001 28.0581 198.242 28.6372C198.436 29.1307 198.486 29.4927 198.384 29.642Z" fill="white"/>
<path id="Vector_13" fill-rule="evenodd" clip-rule="evenodd" d="M198.262 22.467C198.365 22.6167 198.314 22.9783 198.119 23.4719C197.878 24.0509 197.578 24.5972 197.225 25.0998L195.148 28.116C194.826 28.6009 194.449 29.0371 194.026 29.4139C193.686 29.6958 193.438 29.7703 193.334 29.6207C193.231 29.4712 193.283 29.1098 193.477 28.6161C193.718 28.037 194.018 27.4907 194.371 26.9879L196.448 23.9719C196.77 23.4871 197.147 23.0509 197.57 22.6742C197.91 22.3922 198.159 22.3174 198.262 22.467V22.467Z" fill="white"/>
<path id="Vector_14" fill-rule="evenodd" clip-rule="evenodd" d="M199.363 25.8981C199.363 26.1096 199.151 26.3126 198.773 26.4624C198.312 26.6259 197.831 26.7048 197.348 26.6959H194.41C193.927 26.7048 193.446 26.6259 192.985 26.4624C192.608 26.3128 192.395 26.1098 192.395 25.8981C192.395 25.6866 192.608 25.4837 192.985 25.3339C193.446 25.1705 193.927 25.0916 194.41 25.1004H197.348C197.832 25.0916 198.313 25.1705 198.773 25.3339C199.151 25.4835 199.364 25.6865 199.364 25.8981H199.363ZM187.799 29.642C187.696 29.7916 187.447 29.7168 187.107 29.4348C186.685 29.0581 186.308 28.622 185.986 28.1373L183.908 25.1211C183.555 24.6184 183.255 24.072 183.014 23.4928C182.82 22.9992 182.769 22.6374 182.872 22.4883C182.975 22.3387 183.224 22.4132 183.564 22.6951C183.986 23.0719 184.363 23.5082 184.685 23.993L186.763 27.0091C187.116 27.5118 187.416 28.0581 187.656 28.6372C187.851 29.1307 187.901 29.4927 187.799 29.642Z" fill="white"/>
<path id="Vector_15" fill-rule="evenodd" clip-rule="evenodd" d="M187.677 22.4671C187.78 22.6167 187.729 22.9784 187.535 23.472C187.294 24.051 186.994 24.5972 186.641 25.0999L184.563 28.1166C184.242 28.6015 183.865 29.0377 183.442 29.4145C183.102 29.6965 182.853 29.7709 182.75 29.6213C182.647 29.4719 182.698 29.1104 182.893 28.6168C183.134 28.0377 183.434 27.4913 183.787 26.9885L185.864 23.9725C186.186 23.4877 186.563 23.0515 186.985 22.6748C187.325 22.3929 187.574 22.3181 187.677 22.4677V22.4671Z" fill="white"/>
<path id="Vector_16" fill-rule="evenodd" clip-rule="evenodd" d="M188.778 25.8981C188.778 26.1096 188.566 26.3126 188.188 26.4624C187.727 26.6259 187.246 26.7048 186.763 26.6959H183.825C183.342 26.7048 182.86 26.6259 182.4 26.4624C182.022 26.3128 181.81 26.1098 181.81 25.8981C181.81 25.6866 182.022 25.4837 182.4 25.3339C182.86 25.1705 183.342 25.0916 183.825 25.1004H186.763C187.246 25.0916 187.727 25.1705 188.188 25.3339C188.566 25.4835 188.778 25.6865 188.778 25.8981ZM177.254 29.642C177.151 29.7916 176.902 29.7168 176.562 29.4348C176.14 29.0581 175.763 28.622 175.441 28.1373L173.363 25.1211C173.01 24.6184 172.71 24.072 172.469 23.4928C172.275 22.9992 172.225 22.6374 172.327 22.4883C172.43 22.3387 172.679 22.4132 173.019 22.6951C173.441 23.0719 173.818 23.5082 174.14 23.993L176.218 27.0091C176.571 27.5119 176.871 28.0581 177.112 28.6372C177.306 29.1307 177.357 29.4927 177.254 29.642Z" fill="white"/>
<path id="Vector_17" fill-rule="evenodd" clip-rule="evenodd" d="M177.133 22.467C177.236 22.6167 177.185 22.9783 176.99 23.4719C176.749 24.0509 176.449 24.5972 176.097 25.0998L174.019 28.116C173.697 28.6009 173.32 29.0371 172.897 29.4139C172.557 29.6958 172.309 29.7703 172.206 29.6207C172.103 29.4712 172.154 29.1098 172.348 28.6161C172.589 28.037 172.889 27.4907 173.242 26.9879L175.32 23.9719C175.641 23.4871 176.018 23.0509 176.441 22.6742C176.781 22.3922 177.03 22.3174 177.133 22.467V22.467Z" fill="white"/>
<path id="Vector_18" fill-rule="evenodd" clip-rule="evenodd" d="M178.234 25.8981C178.234 26.1096 178.021 26.3126 177.643 26.4624C177.183 26.6259 176.701 26.7048 176.218 26.6959H173.28C172.797 26.7048 172.316 26.6259 171.855 26.4624C171.477 26.3128 171.265 26.1098 171.265 25.8981C171.265 25.6866 171.477 25.4837 171.855 25.3339C172.316 25.1705 172.797 25.0916 173.28 25.1004H176.219C176.702 25.0916 177.183 25.1705 177.644 25.3339C178.021 25.4835 178.234 25.6865 178.234 25.8981H178.234ZM218.289 29.6427C218.186 29.7921 217.937 29.7175 217.597 29.4354C217.175 29.0586 216.798 28.6225 216.476 28.1378L214.399 25.1217C214.046 24.6189 213.746 24.0726 213.505 23.4934C213.31 22.9998 213.26 22.6379 213.362 22.4889C213.465 22.3393 213.714 22.4137 214.054 22.6958C214.477 23.0726 214.854 23.5088 215.176 23.9937L217.253 27.0097C217.606 27.5125 217.906 28.0587 218.147 28.6378C218.341 29.1314 218.392 29.4933 218.289 29.6427H218.289Z" fill="white"/>
<path id="Vector_19" fill-rule="evenodd" clip-rule="evenodd" d="M218.167 22.4683C218.27 22.6179 218.219 22.9796 218.025 23.4732C217.784 24.0523 217.484 24.5986 217.131 25.1013L215.053 28.1172C214.732 28.6021 214.355 29.0384 213.932 29.4152C213.592 29.6973 213.343 29.7717 213.24 29.6221C213.137 29.4725 213.188 29.1112 213.383 28.6176C213.623 28.0384 213.923 27.492 214.276 26.9893L216.354 23.9732C216.676 23.4885 217.053 23.0524 217.475 22.6756C217.815 22.3935 218.064 22.3189 218.167 22.4683V22.4683Z" fill="white"/>
<path id="Vector_20" fill-rule="evenodd" clip-rule="evenodd" d="M219.268 25.8989C219.268 26.1104 219.056 26.3131 218.678 26.4631C218.218 26.6267 217.736 26.7056 217.253 26.6968H214.315C213.832 26.7056 213.35 26.6267 212.89 26.4631C212.512 26.3135 212.3 26.1107 212.3 25.8989C212.3 25.6872 212.512 25.4844 212.89 25.3346C213.35 25.171 213.832 25.0921 214.315 25.1009H217.253C217.736 25.0921 218.218 25.1711 218.678 25.3346C219.056 25.4842 219.268 25.687 219.268 25.8989ZM207.745 29.6427C207.642 29.7921 207.393 29.7175 207.053 29.4354C206.63 29.0586 206.253 28.6225 205.931 28.1378L203.854 25.1217C203.501 24.6189 203.201 24.0726 202.96 23.4934C202.766 22.9998 202.715 22.6379 202.817 22.4889C202.92 22.3393 203.169 22.4137 203.509 22.6958C203.932 23.0726 204.309 23.5089 204.631 23.9937L206.708 27.0097C207.061 27.5125 207.361 28.0587 207.602 28.6378C207.796 29.1314 207.848 29.4933 207.745 29.6427V29.6427Z" fill="white"/>
<path id="Vector_21" fill-rule="evenodd" clip-rule="evenodd" d="M207.623 22.4683C207.726 22.6179 207.674 22.9796 207.48 23.4732C207.239 24.0523 206.939 24.5986 206.586 25.1013L204.509 28.1172C204.187 28.6021 203.81 29.0384 203.387 29.4152C203.047 29.6973 202.799 29.7717 202.696 29.6221C202.593 29.4725 202.644 29.1112 202.838 28.6176C203.079 28.0384 203.379 27.492 203.732 26.9893L205.809 23.9732C206.131 23.4885 206.508 23.0524 206.931 22.6756C207.271 22.3935 207.52 22.3189 207.623 22.4683V22.4683Z" fill="white"/>
<path id="Vector_22" fill-rule="evenodd" clip-rule="evenodd" d="M208.724 25.8987C208.724 26.1102 208.512 26.313 208.134 26.4629C207.673 26.6265 207.192 26.7054 206.709 26.6966H203.771C203.288 26.7055 202.806 26.6265 202.346 26.4629C201.968 26.3133 201.756 26.1106 201.756 25.8987C201.756 25.687 201.968 25.4843 202.346 25.3345C202.806 25.1709 203.288 25.0919 203.771 25.1008H206.709C207.192 25.092 207.673 25.1709 208.134 25.3345C208.512 25.4841 208.724 25.6868 208.724 25.8987Z" fill="white"/>
</g>
</g>
<g id="notes" class="animate-bounce">
<path id="Vector_23" fill-rule="evenodd" clip-rule="evenodd" d="M130.878 0C132.927 0.000379055 134.91 0.809496 136.475 2.28389C138.039 3.75829 139.085 5.80269 139.427 8.05459C142.547 28.6569 150.829 83.3233 154.426 107.066C154.636 108.452 154.572 109.872 154.239 111.227C153.906 112.582 153.312 113.84 152.498 114.913C151.685 115.986 150.671 116.849 149.527 117.44C148.383 118.032 147.138 118.338 145.877 118.338H68.6465C66.5975 118.338 64.6148 117.528 63.0501 116.054C61.4855 114.579 60.44 112.535 60.0993 110.283C56.9773 89.6806 48.6966 35.0143 45.0989 11.2711C44.8894 9.88571 44.9534 8.46605 45.2865 7.11105C45.6195 5.75604 46.2137 4.49826 47.0274 3.42532C47.8412 2.35239 48.8551 1.4901 49.9984 0.89853C51.1417 0.306959 52.387 0.000331404 53.6475 0H130.878Z" fill="#6700EE"/>
<path id="Vector_24" fill-rule="evenodd" clip-rule="evenodd" d="M74.9842 110.294C72.935 110.294 70.9521 109.485 69.3871 108.011C67.8222 106.536 66.7765 104.491 66.4355 102.239C63.5001 82.8588 56.0345 33.5755 52.6553 11.2711C52.4453 9.88577 52.5089 8.46605 52.8417 7.11093C53.1745 5.75581 53.7685 4.49788 54.5822 3.42485C55.3959 2.35182 56.4098 1.4895 57.5532 0.897992C58.6966 0.306487 59.9419 3.75402e-05 61.2025 3.80977e-08H131.988C134.037 -0.000202694 136.02 0.808711 137.585 2.28321C139.15 3.75771 140.196 5.80244 140.537 8.05459C143.474 27.4356 150.939 76.7186 154.317 99.0229C154.527 100.408 154.464 101.828 154.131 103.183C153.798 104.538 153.204 105.796 152.39 106.869C151.577 107.942 150.563 108.805 149.419 109.396C148.276 109.988 147.031 110.294 145.77 110.294H74.9842Z" fill="#E7E7E7"/>
<path id="Vector_25" fill-rule="evenodd" clip-rule="evenodd" d="M97.5855 17.0107C99.0376 16.8043 100.548 16.5853 102.083 16.4718C103.072 16.3989 104.071 16.3551 105.064 16.3882C106.691 16.4516 108.309 16.687 109.897 17.0911C110.256 17.1618 110.626 17.0714 110.925 16.8397C111.225 16.608 111.431 16.2537 111.497 15.8539C111.564 15.4541 111.486 15.0412 111.281 14.7051C111.076 14.3689 110.759 14.1367 110.401 14.059C108.685 13.7769 106.902 13.7281 105.103 13.7217C104.061 13.7186 103.015 13.7186 101.976 13.7437C100.395 13.7832 98.8339 13.8448 97.3309 13.9409C97.1496 13.9588 96.9733 14.0165 96.812 14.1106C96.6508 14.2047 96.5077 14.3334 96.3912 14.4892C96.2746 14.645 96.1868 14.825 96.1328 15.0187C96.0788 15.2124 96.0596 15.4161 96.0763 15.6181C96.0931 15.8202 96.1454 16.0165 96.2304 16.1959C96.3154 16.3753 96.4313 16.5343 96.5715 16.6636C96.7117 16.793 96.8735 16.8903 97.0475 16.9498C97.2215 17.0094 97.4043 17.0301 97.5855 17.0107ZM97.5303 28.0486C99.0631 27.9353 105.153 27.7902 111.176 27.7445C114.519 27.7192 117.839 27.7627 120.364 27.691C121.371 27.661 122.254 27.6247 122.967 27.5679C123.332 27.5301 123.669 27.3321 123.903 27.0175C124.138 26.7029 124.25 26.2974 124.216 25.8903C124.182 25.4833 124.005 25.1079 123.722 24.8468C123.44 24.5857 123.076 24.4603 122.711 24.4981C120.542 24.7675 116.719 24.9961 112.679 25.0717C110.643 25.1095 108.555 25.0953 106.595 25.0764C102.256 25.0338 98.5444 24.9251 97.3861 24.9692C97.0197 24.9905 96.6759 25.1732 96.4304 25.477C96.1848 25.7808 96.0576 26.1809 96.0768 26.5893C96.0959 26.9976 96.2598 27.3808 96.5324 27.6545C96.8049 27.9282 97.1639 28.07 97.5303 28.0486V28.0486ZM97.6542 40.7176C102.568 40.6057 107.277 40.4561 111.897 40.2873C115.095 40.1723 118.249 40.0305 121.397 39.8856C126.641 39.6428 131.866 39.3718 137.239 38.888C137.42 38.8704 137.597 38.8129 137.759 38.7188C137.92 38.6248 138.064 38.4961 138.181 38.3401C138.297 38.1841 138.385 38.0039 138.439 37.8099C138.494 37.6159 138.513 37.4118 138.496 37.2095C138.479 37.0072 138.426 36.8106 138.341 36.631C138.256 36.4514 138.14 36.2924 137.999 36.1631C137.858 36.0338 137.696 35.9367 137.522 35.8775C137.347 35.8183 137.164 35.7981 136.983 35.818C131.664 36.4391 126.49 36.9307 121.288 37.2222C118.158 37.3972 115.017 37.4933 111.833 37.5579C107.226 37.6525 102.528 37.6445 97.6286 37.6351C97.2619 37.6388 96.9115 37.8049 96.6546 38.0966C96.3976 38.3883 96.2552 38.7819 96.2586 39.1906C96.262 39.5994 96.4109 39.9899 96.6727 40.2763C96.9344 40.5627 97.2875 40.7214 97.6542 40.7176V40.7176ZM85.2056 82.9576C85.1858 82.9356 85.1746 82.8992 85.1533 82.8708C85.0756 82.7596 85.0092 82.6391 84.9554 82.5115C84.7694 82.0568 84.6309 81.5798 84.5424 81.09C84.2683 79.7205 84.1876 78.2407 84.1084 77.5962L83.6376 73.1939C83.3548 70.3146 83.1477 67.3014 82.6775 64.3734C82.3723 62.3467 81.879 60.3609 81.2057 58.4478C80.0533 55.277 78.2717 54.4181 76.6146 54.6938C75.1286 54.9413 73.5364 56.3203 72.3544 58.4068C72.081 58.8915 71.8202 59.385 71.5725 59.8866C71.2105 60.6179 70.8704 61.3633 70.5333 62.1103C69.9578 63.3869 69.3993 64.6728 68.8916 65.984C68.5487 66.8728 68.2272 67.7727 67.9386 68.6867C67.8224 69.0718 67.8473 69.4924 68.0079 69.8571C68.1685 70.2218 68.4518 70.5011 68.7961 70.6342C69.1405 70.7674 69.5181 70.7436 69.8468 70.568C70.1755 70.3925 70.4287 70.0794 70.5514 69.6969C70.878 68.633 71.2528 67.5899 71.6558 66.5606C72.0672 65.5128 72.5084 64.4806 72.9608 63.4546C73.2761 62.7407 73.5942 62.0284 73.9336 61.3287C74.1529 60.8748 74.384 60.4281 74.6265 59.9891C75.3179 58.7456 76.1352 57.7591 77.016 57.6031C77.7413 57.4757 78.2829 58.1657 78.7975 59.5493C79.4172 61.271 79.8746 63.0599 80.162 64.887C80.6441 67.7474 80.859 70.6932 81.1546 73.5059L81.6594 77.9801C81.7823 78.9366 81.9478 81.5621 82.5967 83.305C83.0817 84.6053 83.8608 85.4595 84.8039 85.6454C85.7951 85.8408 86.8104 85.261 87.6275 84.0695C88.6738 82.5424 89.4756 79.9547 89.8022 79.11C91.1723 75.5672 92.2638 71.8841 93.535 68.2927C94.0667 66.7862 94.6337 65.2984 95.266 63.8406C95.621 63.0216 96.0676 61.8345 96.7053 60.9377C96.9966 60.5297 97.3162 60.1656 97.7341 60.0757C98.2784 59.9576 98.7252 60.3689 99.1862 60.848C100.033 61.7273 100.811 62.9928 101.591 64.0629C102.352 65.1031 103.135 65.9651 103.923 66.3905C104.713 66.8072 105.586 66.9928 106.458 66.9296C107.816 66.8617 109.234 66.2818 110.619 65.8264C111.675 65.4806 112.702 65.153 113.627 65.6278C114.411 66.0312 114.891 66.9248 115.308 67.9097C116.11 69.8041 116.599 72.0829 117.304 73.5627C118.428 75.9155 120.001 77.2156 121.788 77.857C124.258 78.746 127.21 78.281 130.004 77.4726C130.18 77.4207 130.345 77.3307 130.489 77.2078C130.633 77.085 130.755 76.9316 130.846 76.7565C130.937 76.5814 130.996 76.388 131.02 76.1873C131.045 75.9867 131.033 75.7827 130.986 75.587C130.94 75.3913 130.859 75.2078 130.749 75.0469C130.639 74.886 130.501 74.7509 130.344 74.6492C130.187 74.5476 130.013 74.4815 129.833 74.4546C129.653 74.4277 129.47 74.4406 129.295 74.4926C127.393 75.0644 125.403 75.5105 123.611 75.241C122.01 75.0015 120.592 74.1395 119.626 72.1679C118.79 70.4612 118.238 67.6749 117.153 65.6719C116.516 64.4994 115.715 63.5618 114.684 63.0433C113.87 62.647 112.976 62.4975 112.093 62.6099C110.78 62.7469 109.388 63.3561 108.01 63.7997C106.971 64.1339 105.941 64.4127 104.989 63.91C104.228 63.5067 103.545 62.4357 102.802 61.3822C101.892 60.0963 100.942 58.7976 99.9276 58.079C99.0934 57.4864 98.2082 57.2327 97.2693 57.442C96.5017 57.6314 95.8039 58.0766 95.2686 58.7185C94.296 59.8216 93.6086 61.5378 93.1153 62.6863C92.4621 64.2023 91.8779 65.753 91.3239 67.3196C90.0612 70.8843 88.9611 74.5328 87.5939 78.044C87.3703 78.6175 86.9208 80.0752 86.3086 81.3566C86.101 81.8148 85.8467 82.2447 85.5507 82.6378C85.4453 82.7567 85.3297 82.8638 85.2056 82.9576V82.9576ZM72.2823 94.8878C75.6022 94.853 78.9221 94.768 82.242 94.6719C88.8706 94.4779 95.499 94.1517 102.128 93.876C108.75 93.6002 115.371 93.3922 121.988 93.1825C122.171 93.1768 122.35 93.1309 122.517 93.0472C122.684 92.9636 122.834 92.844 122.959 92.6952C123.084 92.5465 123.181 92.3716 123.245 92.1807C123.309 91.9899 123.339 91.7867 123.332 91.5831C123.325 91.3795 123.282 91.1794 123.205 90.9945C123.128 90.8095 123.019 90.6433 122.885 90.5056C122.75 90.3678 122.592 90.2612 122.42 90.1918C122.248 90.1225 122.066 90.0918 121.883 90.1016C115.932 90.4183 109.978 90.8092 104.017 91.1101C100.05 91.3119 96.0822 91.4748 92.112 91.5988C85.5018 91.8036 78.8922 91.8724 72.2829 91.8052C71.9162 91.8052 71.5644 91.9676 71.3051 92.2566C71.0458 92.5457 70.9001 92.9377 70.9001 93.3465C70.9001 93.7553 71.0458 94.1473 71.3051 94.4363C71.5644 94.7254 71.9162 94.8878 72.2829 94.8878H72.2823ZM73.2292 102.276C74.8115 102.295 76.395 102.213 77.9857 102.131C79.0279 102.077 80.0712 102.009 81.1162 101.975C82.8426 101.92 84.5663 101.938 86.28 101.959C86.6443 101.945 86.9891 101.772 87.2392 101.476C87.4892 101.18 87.6244 100.786 87.6153 100.38C87.6061 99.974 87.4534 99.5883 87.1903 99.3069C86.9272 99.0256 86.5751 98.8714 86.2106 98.878C84.9113 98.971 83.6141 99.1114 82.3054 99.2137C81.4471 99.2799 80.586 99.3429 79.7252 99.3713C77.5998 99.4346 75.4728 99.3763 73.3527 99.1964C73.1707 99.1863 72.9888 99.2165 72.8173 99.285C72.6459 99.3536 72.4882 99.4592 72.3535 99.5959C72.2188 99.7326 72.1096 99.8976 72.0323 100.081C71.9549 100.265 71.9109 100.464 71.9028 100.667C71.8947 100.87 71.9227 101.073 71.985 101.263C72.0474 101.454 72.143 101.629 72.2662 101.779C72.3895 101.928 72.5381 102.049 72.7034 102.134C72.8687 102.22 73.0475 102.268 73.2296 102.276L73.2292 102.276Z" fill="white"/>
<path id="Vector_26" fill-rule="evenodd" clip-rule="evenodd" d="M86.6586 38.8234C86.9349 38.7279 87.1772 38.5378 87.3511 38.2801C87.5249 38.0223 87.6215 37.7101 87.6271 37.3877C89.5785 34.1968 90.7494 30.4939 91.0243 26.6444C91.3649 21.9292 90.3456 17.1163 87.8033 13.126C85.7376 9.87327 82.1942 7.55643 78.9166 7.61504C76.8211 7.65144 74.805 8.60155 73.2652 10.8472C72.2168 11.3273 71.2752 12.0573 70.5066 12.9859C68.9004 14.8486 67.6602 17.4677 66.9223 19.2201C64.8495 24.1308 63.9982 30.731 65.5889 36.0381C66.6994 39.7446 68.9611 42.8492 72.776 44.4188C73.4651 44.7039 74.1801 44.9042 74.9082 45.0162C75.6351 45.1298 76.3708 45.1562 77.1027 45.095C78.9072 44.918 80.6495 44.2725 82.19 43.2101C83.6754 42.1955 85.014 40.9357 86.1603 39.4736C86.3306 39.2609 86.4967 39.0441 86.6586 38.8234V38.8234ZM84.5739 37.4634C84.2466 36.983 83.9242 36.4986 83.6066 36.0102C82.4431 34.2201 81.3332 32.3935 80.161 30.6001C79.7953 30.0094 79.3977 29.4441 78.9703 28.9074C78.6367 28.515 78.2747 28.1526 77.8393 28.0337C77.541 27.9549 77.2652 28.1772 76.9902 28.3821C76.5314 28.7524 76.1014 29.1652 75.7048 29.616C74.5101 30.89 73.3281 32.2715 72.2012 33.7071C71.1323 35.0723 70.1143 36.4861 69.1499 37.9448C70.2217 39.761 71.7911 41.1429 73.6243 41.8847C74.1485 42.1055 74.6928 42.2614 75.2476 42.3495C75.8032 42.4386 76.3659 42.4608 76.9258 42.4158C78.3583 42.2763 79.7415 41.764 80.9641 40.9202C82.2423 40.0502 83.3942 38.9683 84.3802 37.7117C84.4458 37.6303 84.5108 37.5468 84.5739 37.4634V37.4634ZM86.2126 34.9025C87.5794 32.3224 88.3919 29.4248 88.5865 26.4364C88.8524 22.3642 87.946 18.2133 85.7191 14.7934C84.3887 12.7573 82.32 11.1714 80.2245 10.7258C78.8884 10.4406 77.5452 10.6712 76.4253 11.6209C76.4539 11.744 76.4682 11.8706 76.4677 11.9977C76.4679 12.0966 76.4594 12.1953 76.4423 12.2924L77.0107 14.5459C77.3316 16.1283 77.5877 17.7089 77.8689 19.28C78.057 20.3357 78.2608 21.3841 78.4443 22.4414C78.631 23.5115 78.8121 24.5831 78.9718 25.6674C79.475 25.9182 79.9379 26.2595 80.3419 26.6776C81.0263 27.3632 81.6145 28.2503 82.1065 28.958C83.1628 30.4567 84.1708 31.9854 85.2116 33.4872C85.5414 33.9617 85.8753 34.4335 86.2133 34.9025H86.2126ZM74.1516 14.0512C73.9716 14.0896 73.7864 14.0868 73.6074 14.0432C73.1875 14.343 72.8016 14.698 72.4579 15.1007C71.0468 16.7004 69.9721 18.9792 69.3161 20.4921C67.7719 24.052 66.9293 28.6413 67.4708 32.7717C67.561 33.4661 67.6954 34.1525 67.873 34.8257C68.6518 33.7862 69.4562 32.7709 70.2853 31.781C71.5026 30.3249 72.7675 28.9223 74.0491 27.6331C74.6133 27.0563 75.3895 26.2589 76.221 25.7948C76.0904 24.0677 75.9434 22.3624 75.6766 20.6732C75.3882 18.845 74.9639 17.0467 74.5356 15.2283C74.4266 14.8286 74.2986 14.4357 74.1523 14.0512H74.1516Z" fill="#BE8CFF"/>
</g>
<path id="Vector_27" fill-rule="evenodd" clip-rule="evenodd" d="M238.847 208.014C240.874 203.339 249.732 217.604 246.346 221.15C241.676 226.04 215.104 238.075 210.822 237.357C206.54 236.64 215.988 221.729 220.658 216.838C225.329 211.947 233.191 221.054 238.847 208.014Z" fill="#6700EE"/>
<g id="Group_4">
<path id="Vector_28" fill-rule="evenodd" clip-rule="evenodd" d="M249.987 208.836C248.535 209.984 245.702 216.211 242.435 218.397C236.94 222.077 223.418 228.915 217.015 230.916C212.843 232.22 206.039 229.783 204.022 230.405C202.767 230.791 203.616 234.449 204.908 234.649C207.221 235.007 213.759 234.12 217.905 232.552C224.2 230.174 237.135 223.886 242.674 220.378C246.043 218.246 249.923 213.432 251.142 211.507C251.653 210.7 250.709 208.264 249.987 208.836V208.836Z" fill="white"/>
</g>
<path id="Vector_29" fill-rule="evenodd" clip-rule="evenodd" d="M158.131 185.93C162.124 183.352 162.428 200.535 157.866 201.345C151.572 202.463 123.566 195.874 120.366 192.635C117.166 189.395 132.377 183.019 138.671 181.901C144.965 180.783 146.992 193.12 158.131 185.93Z" fill="#6700EE"/>
<g id="Group_5">
<path id="Vector_30" fill-rule="evenodd" clip-rule="evenodd" d="M166.963 193.635C165.183 193.687 159.719 197.1 155.914 196.889C149.511 196.534 134.864 193.821 128.546 191.508C124.429 190.001 119.995 183.755 118.009 183.019C116.773 182.561 115.652 186.126 116.624 187.094C118.367 188.827 124.24 192.148 128.467 193.42C134.884 195.352 148.77 198.158 155.123 198.683C158.986 199.003 164.614 197.412 166.589 196.571C167.417 196.217 167.849 193.608 166.963 193.635V193.635Z" fill="white"/>
</g>
<path id="Vector_31" fill-rule="evenodd" clip-rule="evenodd" d="M201.526 132.686C183.51 142.302 166.774 130.014 159.947 143.501C153.237 156.757 176.999 185.203 157.318 189.405C147.913 191.411 131.986 182.4 130.248 171.401C128.51 160.403 135.006 133.311 146.884 123.417C158.763 113.523 185.811 109.03 201.525 112.042C217.96 115.192 218.88 123.425 201.526 132.686Z" fill="#0BCEB2"/>
<g id="Group_6">
<path id="Vector_32" fill-rule="evenodd" clip-rule="evenodd" d="M182.001 106.607C182.254 106.766 182.374 107.108 182.471 107.456C182.62 108.029 182.703 108.62 182.717 109.216C182.79 112.428 181.938 115.581 180.286 118.213C179.223 119.888 177.766 120.919 176.132 121.558C173.512 122.582 170.482 122.658 167.843 122.781C165.535 122.848 163.237 123.158 160.98 123.707C158.716 124.284 156.528 125.17 154.54 126.553C151.87 128.351 150.141 130.812 148.86 133.599C145.977 139.867 145.512 147.924 142.301 154.038C141.635 155.309 140.904 156.536 140.112 157.714C139.332 158.872 138.462 159.95 137.512 160.936C134.956 163.573 132.167 165.621 129.823 168.3C128.739 169.525 127.79 170.889 126.994 172.363C126.815 172.72 126.771 173.142 126.871 173.535C126.971 173.928 127.207 174.261 127.528 174.46C127.848 174.659 128.226 174.708 128.579 174.597C128.932 174.485 129.23 174.222 129.409 173.865C130.254 172.101 131.329 170.486 132.599 169.073C134.575 166.808 136.829 164.868 138.886 162.504C139.861 161.374 140.746 160.153 141.533 158.853C142.306 157.575 143.016 156.25 143.658 154.885C146.682 148.581 146.807 140.399 149.575 133.996C150.735 131.314 152.388 128.968 154.91 127.229C156.842 125.967 158.955 125.085 161.155 124.62C163.358 124.129 165.632 123.977 167.862 123.979C170.629 124.001 173.793 124.044 176.586 123.145C178.581 122.502 180.379 121.375 181.766 119.464C182.796 118.021 183.614 116.406 184.19 114.677C184.781 112.936 185.121 111.101 185.198 109.242C185.244 108.202 185.132 107.161 184.869 106.162C184.63 105.273 184.127 104.502 183.442 103.975C183.287 103.869 183.115 103.799 182.935 103.768C182.756 103.736 182.573 103.745 182.396 103.792C182.22 103.84 182.053 103.926 181.906 104.045C181.76 104.165 181.635 104.315 181.541 104.488C181.446 104.661 181.383 104.852 181.355 105.052C181.327 105.252 181.334 105.457 181.377 105.653C181.42 105.85 181.497 106.036 181.604 106.199C181.711 106.363 181.846 106.501 182.001 106.607H182.001ZM169.904 143.867C168.881 143.104 167.664 142.729 166.435 142.798C164.853 142.886 163.245 143.592 161.909 144.543C159.685 146.129 157.73 148.141 156.135 150.486C154.487 152.909 153.256 155.642 152.981 158.419C152.755 160.398 152.962 162.376 153.375 164.324C153.983 167.18 155.067 169.974 156.208 172.511C156.703 173.649 157.599 175.072 158.104 176.52C158.404 177.381 158.56 178.244 158.319 179.042C157.57 181.478 155.631 183.012 153.595 184.487C151.34 186.119 148.983 187.686 147.522 189.925C146.649 191.261 146.13 192.844 146.024 194.492C146.016 194.695 146.045 194.897 146.108 195.087C146.17 195.277 146.266 195.451 146.389 195.6C146.513 195.748 146.661 195.869 146.826 195.954C146.991 196.038 147.169 196.086 147.351 196.094C147.717 196.111 148.074 195.964 148.344 195.687C148.613 195.409 148.773 195.024 148.788 194.615C148.782 192.704 149.49 191.246 150.528 189.992C153.475 186.434 158.458 184.171 159.565 179.463C159.758 178.58 159.709 177.653 159.423 176.802C158.903 175.088 157.681 173.377 157.018 172.042C155.848 169.603 154.654 166.93 154.065 164.143C153.661 162.314 153.581 160.416 153.829 158.553C154.224 156.003 155.481 153.53 157.157 151.422C158.784 149.401 160.73 147.73 162.899 146.494C163.821 145.959 164.829 145.631 165.864 145.528C166.731 145.442 167.593 145.739 168.266 146.353C168.413 146.473 168.579 146.56 168.755 146.608C168.932 146.656 169.115 146.665 169.294 146.635C169.474 146.604 169.646 146.534 169.802 146.429C169.957 146.324 170.092 146.187 170.2 146.023C170.307 145.86 170.385 145.675 170.428 145.478C170.471 145.282 170.48 145.078 170.452 144.877C170.425 144.677 170.362 144.485 170.268 144.312C170.174 144.139 170.05 143.988 169.904 143.868V143.867Z" fill="white"/>
<path id="Vector_33" fill-rule="evenodd" clip-rule="evenodd" d="M206.588 118.856C188.082 140.349 167.047 127.904 159.027 141.478C155.459 147.52 160.895 161.525 167.374 161.084C177.69 160.383 214.391 144.303 220.927 137.265C226.171 131.618 210.526 114.282 206.588 118.856Z" fill="black" fill-opacity="0.2"/>
</g>
<path id="Vector_34" fill-rule="evenodd" clip-rule="evenodd" d="M222.732 121.351C211.021 155.903 226.778 171.83 229.456 175.93C239.052 190.619 255.044 196.874 245.064 209.854C238.805 217.994 221.867 220.882 213.678 213.48C205.443 206.038 197.504 181.951 195.657 165.203C193.811 148.456 198.339 130.246 202.598 112.995C205.857 99.7924 229.576 101.16 222.732 121.351V121.351Z" fill="#0BCEB2"/>
<g id="Group_7">
<path id="Vector_35" fill-rule="evenodd" clip-rule="evenodd" d="M228.555 105.542C226.876 106.136 225.229 107.422 223.721 109.028C221.705 111.173 219.912 113.848 218.54 115.761C213.821 122.284 208.903 131.21 206.771 140.394C205.318 146.646 205.135 153.021 207.255 158.882C207.692 160.109 208.381 161.417 209.335 162.131C209.69 162.408 210.096 162.591 210.523 162.668C210.95 162.746 211.387 162.715 211.801 162.577C212.754 162.291 214.361 161.08 215.707 160.733C216.503 160.528 217.191 160.683 217.46 161.793C219.347 169.816 217.569 178.882 218.815 187.126C219.364 190.757 220.485 194.232 222.711 197.412C224.061 199.342 225.789 200.534 227.708 201.353C231.767 203.087 236.755 202.985 240.563 205.112C242.332 206.102 243.629 207.542 244.693 209.197C246.413 211.867 247.527 215.089 248.867 218.071C248.952 218.25 249.067 218.409 249.207 218.538C249.347 218.668 249.508 218.765 249.681 218.825C249.855 218.885 250.037 218.906 250.218 218.888C250.399 218.869 250.574 218.811 250.735 218.717C250.896 218.623 251.038 218.494 251.154 218.339C251.27 218.183 251.358 218.003 251.412 217.81C251.466 217.617 251.485 217.413 251.468 217.212C251.451 217.01 251.399 216.814 251.315 216.635C249.807 213.591 248.504 210.3 246.618 207.594C245.276 205.67 243.66 204.02 241.503 202.923C237.553 200.912 232.477 201.191 228.286 199.582C226.615 198.941 225.092 197.98 223.883 196.359C221.727 193.465 220.597 190.256 220.006 186.885C218.569 178.676 220.2 169.559 218.159 161.58C217.844 160.308 217.163 159.87 216.335 159.856C214.862 159.832 212.767 161.466 211.616 161.813C211.3 161.916 210.967 161.938 210.643 161.877C210.318 161.817 210.01 161.676 209.741 161.465C208.907 160.83 208.336 159.656 207.964 158.573C206.035 152.87 206.302 146.712 207.872 140.733C210.198 131.872 215.354 123.426 220.17 117.286C221.564 115.524 223.386 113.045 225.406 111.096C226.655 109.892 227.978 108.899 229.325 108.502C229.674 108.385 229.967 108.119 230.141 107.762C230.315 107.405 230.356 106.986 230.254 106.596C230.152 106.206 229.917 105.877 229.598 105.68C229.28 105.482 228.904 105.433 228.553 105.542H228.555ZM199.102 184.21C199.037 182.823 199.42 181.203 200.075 179.724C200.761 178.17 201.699 176.753 202.716 175.893C203.262 175.406 203.912 175.088 204.602 174.97C204.92 174.914 205.244 174.934 205.553 175.029C205.863 175.124 206.151 175.292 206.397 175.522C206.927 176.074 207.326 176.765 207.557 177.531C207.989 178.817 208.167 180.275 208.345 181.463C208.598 183.25 208.759 185.076 208.904 186.909C209.048 188.755 209.191 190.602 209.438 192.42C209.635 194.008 209.956 195.573 210.4 197.098C210.971 199.082 212.004 200.862 213.393 202.256C216.335 205.279 220.516 206.472 223.515 209.992C224.36 211.024 224.979 212.261 225.324 213.604C225.905 215.694 225.966 217.99 225.934 220.155C225.947 220.561 226.103 220.945 226.368 221.223C226.633 221.502 226.987 221.653 227.351 221.643C227.715 221.633 228.061 221.463 228.314 221.17C228.567 220.877 228.705 220.485 228.7 220.079C228.555 217.635 228.266 215.063 227.442 212.767C226.866 211.161 226.058 209.678 224.863 208.466C221.597 205.114 217.26 204.225 214.107 201.341C212.785 200.142 211.776 198.569 211.186 196.787C210.562 194.837 210.146 192.811 209.949 190.753C209.619 187.615 209.63 184.409 209.295 181.319C209.175 180.052 209.052 178.504 208.679 177.111C208.436 176.102 207.974 175.174 207.334 174.41C206.535 173.505 205.519 173.187 204.485 173.223C203.491 173.286 202.529 173.635 201.693 174.237C200.381 175.147 199.096 176.722 198.103 178.501C197.078 180.334 196.423 182.395 196.337 184.211C196.337 184.62 196.482 185.012 196.742 185.301C197.001 185.59 197.353 185.752 197.719 185.752C198.086 185.752 198.438 185.59 198.697 185.301C198.957 185.012 199.102 184.62 199.102 184.211L199.102 184.21Z" fill="white"/>
<path id="Vector_36" fill-rule="evenodd" clip-rule="evenodd" d="M231.29 168.988C230.336 169.664 229.622 170.782 229.253 172.236C228.632 174.682 228.783 177.943 229.014 179.651C229.115 180.515 229.257 181.372 229.438 182.22C229.617 183.075 229.861 183.912 230.168 184.721C230.872 186.645 231.831 187.964 232.932 188.924C233.768 189.639 234.708 190.187 235.711 190.546C240.689 192.405 247.78 190.218 252.217 194.069C252.519 194.298 252.889 194.384 253.247 194.31C253.605 194.235 253.922 194.007 254.13 193.673C254.338 193.339 254.419 192.928 254.356 192.528C254.293 192.128 254.091 191.772 253.794 191.537C252.094 190.401 250.205 189.901 248.196 189.762C244.112 189.482 239.579 190.722 235.94 189.677C235.005 189.428 234.128 188.962 233.365 188.309C232.367 187.433 231.579 186.142 231.009 184.363C230.784 183.59 230.623 182.796 230.529 181.99C230.435 181.176 230.385 180.357 230.379 179.536C230.376 178.212 230.517 175.869 231.108 173.934C231.419 172.92 231.862 172.05 232.566 171.726C232.892 171.537 233.137 171.212 233.248 170.822C233.358 170.432 233.326 170.009 233.156 169.646C232.987 169.283 232.696 169.01 232.346 168.887C231.996 168.763 231.617 168.8 231.291 168.988H231.29Z" fill="white"/>
</g>
<path id="Vector_37" fill-rule="evenodd" clip-rule="evenodd" d="M217.107 72.4692C209.481 70.484 202.237 92.5109 194.586 92.8565C186.934 93.2021 174.619 78.5017 171.198 74.541C169.754 72.8657 167.514 71.2505 166.466 70.8948C163.769 69.9777 159.292 69.692 158.982 71.3014C158.777 72.3678 163.428 71.5666 163.177 73.1571C162.54 77.1979 164.387 78.227 167.886 78.4813C171.515 87.0237 187.218 106.451 196.072 107.687C204.927 108.923 218.792 91.7975 221.005 85.9002C223.413 79.4916 221.239 73.5437 217.107 72.4692Z" fill="#D6AEAE"/>
<g id="Group_8">
<path id="Vector_38" fill-rule="evenodd" clip-rule="evenodd" d="M218.203 94.0973C215.574 94.5904 213.583 91.0479 211.172 89.7385C206.03 86.947 204.757 95.3821 199.105 85.6276C197.398 82.6777 200.502 71.52 204.14 68.3213C207.777 65.1226 217.132 63.3523 220.931 66.4298C224.731 69.5073 227.395 82.1719 226.94 86.7833C226.543 90.8189 220.832 93.6059 218.203 94.0973V94.0973Z" fill="#6E00FF"/>
<path id="Vector_39" fill-rule="evenodd" clip-rule="evenodd" d="M214.647 81.1018C212.669 82.8522 211.181 93.7335 206.565 96.9915C200.924 100.972 183.826 101.511 180.798 104.993C177.77 108.476 183.781 117.771 188.393 117.889C194.428 118.041 211.995 111.141 217.002 105.906C221.253 101.463 218.826 90.6172 218.432 86.4817C218.217 84.2166 216.248 79.6828 214.647 81.1018V81.1018Z" fill="black" fill-opacity="0.2"/>
</g>
<path id="Vector_40" fill-rule="evenodd" clip-rule="evenodd" d="M226.275 113.683C227.41 120.93 201.37 125.175 196.727 118.299C189.497 107.595 210.794 101.966 212.01 76.9432C212.444 68.0037 234.315 68.7171 228.979 78.856C225.982 84.5526 223.016 92.8841 226.275 113.683V113.683Z" fill="#1A2283"/>
<g id="Group_9">
<path id="Vector_41" fill-rule="evenodd" clip-rule="evenodd" d="M222.987 85.7396C220.276 84.5383 225.364 99.4191 221.538 103.615C216.888 108.715 195.718 112.046 195.088 116.34C194.457 120.633 210.634 130.293 217.752 129.373C224.87 128.454 236.926 118.087 237.799 110.814C238.671 103.541 225.697 86.94 222.987 85.7396Z" fill="black" fill-opacity="0.2"/>
</g>
<path id="Vector_42" fill-rule="evenodd" clip-rule="evenodd" d="M221.619 142.367C225.714 146.252 231.383 146.357 234.282 142.602L234.283 142.6C237.181 138.846 236.212 132.653 232.116 128.769L155.082 55.6927C153.515 54.2059 151.705 53.0664 149.75 52.3359C146.291 51.0427 140.491 48.8743 136.193 47.2676C135.772 47.1102 135.318 47.0992 134.891 47.2359C134.465 47.3726 134.086 47.6505 133.805 48.0325C133.525 48.4145 133.357 48.8823 133.323 49.3733C133.289 49.8643 133.391 50.355 133.616 50.7798C135.939 55.1738 139.071 61.0996 140.842 64.4493C141.749 66.1649 142.908 67.7007 144.271 68.9933L221.619 142.367Z" fill="#6E00FF"/>
<g id="Group_10">
<path id="Vector_43" fill-rule="evenodd" clip-rule="evenodd" d="M134.657 55.1133C149.665 71.013 158.02 79.0503 175.615 90.476C201.971 107.589 212.353 131.388 221.996 137.026C226.773 139.819 241.232 141.519 233.469 124.304C230.934 118.68 257.271 147.732 252.579 153.27C247.886 158.807 219.567 165.147 205.315 157.531C185.474 146.928 145.314 106.726 133.539 89.6566C127.237 80.5223 130.425 50.6298 134.657 55.1133V55.1133Z" fill="black" fill-opacity="0.2"/>
</g>
<path id="Vector_44" fill-rule="evenodd" clip-rule="evenodd" d="M223.809 136.788C224.342 137.295 225.035 137.546 225.735 137.485C226.434 137.425 227.084 137.059 227.541 136.467L229.259 134.24C229.26 134.238 229.259 134.236 229.26 134.234C229.259 134.232 229.258 134.23 229.256 134.228L209.241 115.22C209.176 115.158 209.101 115.111 209.02 115.082C208.938 115.052 208.853 115.041 208.768 115.048C208.683 115.056 208.6 115.082 208.523 115.124C208.447 115.167 208.379 115.227 208.324 115.298L207.025 116.983C206.569 117.575 206.343 118.344 206.398 119.121C206.452 119.898 206.782 120.619 207.316 121.125L223.809 136.788Z" fill="white"/>
<path id="Vector_45" fill-rule="evenodd" clip-rule="evenodd" d="M223.656 73.6345C217.376 78.8331 227.734 99.4763 223.029 106.227C218.324 112.979 199.932 111.919 195.423 114.14C194.708 114.492 192.466 109.857 191.462 109.376C189.993 108.671 190.033 110.948 191.001 113.102C191.443 114.086 187.167 108.874 186.931 109.893C186.365 112.337 189.477 118.562 195.974 119.553C208.751 121.498 227.551 121.438 234.113 114.699C240.674 107.961 237.939 84.8906 235.343 79.1304C232.522 72.8692 227.058 70.8159 223.656 73.6345V73.6345Z" fill="#D6AEAE"/>
<g id="Group_11">
<path id="Vector_46" fill-rule="evenodd" clip-rule="evenodd" d="M239.407 87.0165C238.037 89.5646 234.327 88.9532 231.868 90.1471C226.624 92.6934 231.554 99.249 221.228 97.7073C218.106 97.2397 212.508 87.3634 212.687 82.2037C212.867 77.044 217.732 67.9634 222.299 66.7407C226.866 65.5179 237.238 71.4817 240.089 74.8619C242.584 77.8186 240.778 84.4697 239.407 87.0165V87.0165Z" fill="#6E00FF"/>
</g>
<path id="Vector_47" fill-rule="evenodd" clip-rule="evenodd" d="M228.689 58.5304C228.473 60.9602 226.935 67.0893 223.513 67.3367C219.998 67.5906 219.03 61.2849 219.248 58.8546C219.466 56.4244 223.244 52.8082 224.818 52.7535C226.392 52.6988 228.902 56.1535 228.689 58.5304Z" fill="#D6AEAE"/>
<path id="Vector_48" fill-rule="evenodd" clip-rule="evenodd" d="M220.422 63.7617C220.654 63.5564 221.665 65.0044 222.254 65.0385C222.843 65.0726 223.375 63.9017 223.956 63.9671C224.536 64.0324 225.056 65.6949 225.732 65.422C226.408 65.1492 227.678 63.4966 228.017 62.3325C228.357 61.1683 228.126 59.1352 227.763 58.4443C227.445 57.841 226.443 57.9452 225.836 58.1877C223.853 58.9855 221.121 58.7555 220.043 57.9373C218.965 57.1191 217.923 56.0616 219.373 53.2746C219.873 52.315 222.737 49.8732 223.367 51.7738C224.632 55.6013 224.905 49.794 229.071 54.1643C230.074 55.214 229.804 57.2718 229.723 58.7943C229.642 60.3167 229.314 61.9576 228.58 63.2999C227.764 64.7946 227.499 65.8686 224.825 67.765C223.685 68.5723 218.644 69.2861 220.866 66.2673C221.247 65.7509 220.191 63.9654 220.422 63.7617Z" fill="black"/>
</g>
</g>
</svg>
