<svg width="75" height="86" viewBox="0 0 75 86" fill="none" xmlns="http://www.w3.org/2000/svg">
<g id="Group 57">
<g id="Group 54">
<path id="Vector" d="M48.8239 41.7407C44.7394 41.2352 40.537 41.6177 36.541 40.7161C30.3479 39.2954 24.9511 34.8147 18.5663 35.0059C11.8571 35.2109 6.34233 41.1533 6.01793 47.3552C5.69353 53.5572 9.8075 59.4996 15.4697 62.8465C21.132 66.1934 28.0771 67.2316 34.7715 66.9584C41.289 66.6988 47.6738 65.3054 54.0143 63.8984C59.824 62.6143 72.4461 58.2975 68.1109 50.4016C65.6632 45.9618 53.513 42.3281 48.8239 41.7407Z" fill="#EFE17B"/>
</g>
<path id="Vector_2" d="M68.9349 57.9397H27.982C27.5109 55.7854 26.1272 53.9468 24.1988 52.8079V24.2674C24.1988 21.9484 22.1968 20 19.6206 20C17.0887 20 15.0425 21.921 15.0425 24.2674V52.8079C13.1288 53.9468 11.7304 55.7854 11.274 57.9397H8.09435C4.72332 57.9397 2 60.4919 2 63.6204V76.0657C2 78.9884 4.37003 81.3896 7.40248 81.7189V84.573C7.40248 85.3688 8.09435 86 8.93343 86C9.77251 86 10.4644 85.3551 10.4644 84.573V81.7464H66.5354V84.5593C66.5354 85.3551 67.2273 85.9863 68.0663 85.9863C68.9054 85.9863 69.5973 85.3414 69.5973 84.5593V81.7052C72.6297 81.3759 74.9998 78.9746 74.9998 76.052V63.6067C75.0292 60.4782 72.2912 57.9397 68.9349 57.9397ZM18.1191 24.2674C18.1191 23.499 18.7963 22.8678 19.6206 22.8678C20.4303 22.8678 21.1221 23.4852 21.1221 24.2674V51.6827C20.6364 51.6004 20.1359 51.5593 19.6206 51.5593C19.1054 51.5593 18.6049 51.6141 18.1191 51.6965C18.1191 51.6827 18.1191 24.2674 18.1191 24.2674ZM19.6206 54.427C22.0348 54.427 24.0957 55.9089 24.8023 57.9397H14.4242C15.1603 55.8952 17.2064 54.427 19.6206 54.427ZM71.9526 76.0657C71.9526 77.6162 70.5983 78.8786 68.9349 78.8786H8.09435C6.43092 78.8786 5.07662 77.6162 5.07662 76.0657V63.6204C5.07662 62.0699 6.43092 60.8075 8.09435 60.8075H68.9349C70.5983 60.8075 71.9526 62.0699 71.9526 63.6204V76.0657Z" fill="#6700EE"/>
<g id="Group 56">
<path id="Vector_3" d="M29.6248 30.4964C30.2308 31.0685 31.2064 31.0685 31.8124 30.4964C33.2314 29.1568 34 27.3847 34 25.5009C34 23.6171 33.2166 21.845 31.8124 20.5054C31.2064 19.9333 30.2308 19.9333 29.6248 20.5054C29.0188 21.0775 29.0188 21.9984 29.6248 22.5706C30.4526 23.352 30.9108 24.3985 30.9108 25.5009C30.9108 26.6032 30.4526 27.6498 29.6248 28.4312C29.0188 29.0033 29.0188 29.9243 29.6248 30.4964ZM6.16737 34.5709C6.77339 33.9988 6.77339 33.0778 6.16737 32.5057C2.07304 28.6405 2.07304 22.3473 6.16737 18.4821C6.77339 17.91 6.77339 16.989 6.16737 16.4169C5.56135 15.8587 4.58581 15.8587 3.97979 16.4308C-1.3266 21.4263 -1.3266 29.5754 3.97979 34.5709C4.58581 35.143 5.56135 35.143 6.16737 34.5709Z" fill="#0BCEB2"/>
</g>
<g id="Group 55">
<path id="Vector_4" d="M10.3752 30.4964C9.76916 31.0685 8.79361 31.0685 8.18759 30.4964C6.76861 29.1568 6 27.3847 6 25.5009C6 23.6171 6.78339 21.845 8.18759 20.5054C8.79361 19.9333 9.76916 19.9333 10.3752 20.5054C10.9812 21.0775 10.9812 21.9984 10.3752 22.5706C9.54744 23.352 9.08923 24.3985 9.08923 25.5009C9.08923 26.6032 9.54744 27.6498 10.3752 28.4312C10.9812 29.0033 10.9812 29.9243 10.3752 30.4964ZM33.8326 34.5709C33.2266 33.9988 33.2266 33.0778 33.8326 32.5057C37.927 28.6405 37.927 22.3473 33.8326 18.4821C33.2266 17.91 33.2266 16.989 33.8326 16.4169C34.4386 15.8587 35.4142 15.8587 36.0202 16.4308C41.3266 21.4263 41.3266 29.5754 36.0202 34.5709C35.4142 35.143 34.4386 35.143 33.8326 34.5709Z" fill="#0BCEB2"/>
</g>
<path id="Vector_5" d="M16.7694 65.3286H13.1583C12.3034 65.3286 11.6254 65.9732 11.6254 66.755C11.6254 67.5368 12.3181 68.1815 13.1583 68.1815H16.7694C17.6243 68.1815 18.3023 67.5368 18.3023 66.755C18.3023 65.9732 17.6243 65.3286 16.7694 65.3286ZM28.4724 65.3286H24.8613C24.0064 65.3286 23.3284 65.9732 23.3284 66.755C23.3284 67.5368 24.0211 68.1815 24.8613 68.1815H28.4724C29.3273 68.1815 30.0053 67.5368 30.0053 66.755C30.0053 65.9732 29.3125 65.3286 28.4724 65.3286ZM40.1754 65.3286H36.5643C35.7094 65.3286 35.0314 65.9732 35.0314 66.755C35.0314 67.5368 35.7241 68.1815 36.5643 68.1815H40.1754C41.0303 68.1815 41.7083 67.5368 41.7083 66.755C41.7083 65.9732 41.0155 65.3286 40.1754 65.3286ZM16.7694 71.9398H13.1583C12.3034 71.9398 11.6254 72.5844 11.6254 73.3663C11.6254 74.1481 12.3181 74.7927 13.1583 74.7927H16.7694C17.6243 74.7927 18.3023 74.1481 18.3023 73.3663C18.3023 72.5844 17.6243 71.9398 16.7694 71.9398ZM28.4724 71.9398H24.8613C24.0064 71.9398 23.3284 72.5844 23.3284 73.3663C23.3284 74.1481 24.0211 74.7927 24.8613 74.7927H28.4724C29.3273 74.7927 30.0053 74.1481 30.0053 73.3663C30.0053 72.5844 29.3125 71.9398 28.4724 71.9398ZM40.1754 71.9398H36.5643C35.7094 71.9398 35.0314 72.5844 35.0314 73.3663C35.0314 74.1481 35.7241 74.7927 36.5643 74.7927H40.1754C41.0303 74.7927 41.7083 74.1481 41.7083 73.3663C41.7083 72.5844 41.0155 71.9398 40.1754 71.9398ZM59.6313 64.1489C56.1233 64.1489 53.2639 66.8099 53.2639 70.0743C53.2639 73.3388 56.1233 75.9998 59.6313 75.9998C63.1392 75.9998 65.9986 73.3388 65.9986 70.0743C65.9986 66.7962 63.1392 64.1489 59.6313 64.1489ZM59.6313 73.1194C57.8183 73.1194 56.3444 71.7477 56.3444 70.0606C56.3444 68.3735 57.8183 67.0019 59.6313 67.0019C61.4442 67.0019 62.9181 68.3735 62.9181 70.0606C62.9181 71.7477 61.4442 73.1194 59.6313 73.1194Z" fill="#2D4356"/>
</g>
</svg>
