<svg width="162" height="164" viewBox="0 0 162 164" fill="none" xmlns="http://www.w3.org/2000/svg">
<g id="ear">
<path id="Vector" d="M111.919 100.975C115.703 98.4667 120.884 95.0317 124.13 83.3445C128.98 65.877 123.637 55.9573 116.191 53.8748C110.927 52.4051 104.396 55.2263 102.079 63.4596C102.007 63.7125 101.986 63.9772 102.017 64.2383C102.047 64.4995 102.129 64.752 102.257 64.9815C102.386 65.211 102.558 65.4129 102.765 65.5757C102.971 65.7385 103.208 65.859 103.461 65.9302C103.714 66.0015 103.979 66.0222 104.24 65.991C104.501 65.9599 104.753 65.8775 104.982 65.7487C105.212 65.6199 105.413 65.4472 105.576 65.2404C105.738 65.0336 105.858 64.7968 105.929 64.5436C107.372 59.4211 111.147 56.6165 115.114 57.7273C120.466 59.2238 124.366 67.544 120.276 82.2742C117.43 92.5231 113.149 95.3609 109.708 97.6416C106.306 99.8974 103.091 102.028 104.287 109.541C105.661 118.167 102.804 123.347 99.3621 124.655C96.6578 125.684 93.7378 124.393 91.7494 121.28C91.6082 121.059 91.4246 120.867 91.2092 120.717C90.9939 120.566 90.7509 120.459 90.4943 120.403C90.2377 120.346 89.9725 120.341 89.7137 120.386C89.455 120.432 89.2078 120.529 88.9864 120.67C88.7649 120.812 88.5735 120.995 88.4231 121.211C88.2726 121.426 88.1661 121.669 88.1097 121.926C88.0532 122.183 88.0478 122.448 88.0939 122.707C88.14 122.965 88.2366 123.212 88.3782 123.434C90.6712 127.022 94.0278 129.009 97.486 129.009C98.6136 129.007 99.7312 128.798 100.784 128.395C105.376 126.649 110.084 120.499 108.238 108.912C107.446 103.94 108.755 103.072 111.919 100.975ZM60.6797 106.678C60.9424 106.679 61.2025 106.627 61.4452 106.527C61.6879 106.426 61.9083 106.279 62.0938 106.093C67.15 101.025 69.9897 94.1594 69.9897 87.0011C69.9897 79.8428 67.15 72.9768 62.0938 67.9097C61.9082 67.7235 61.6877 67.5757 61.445 67.4748C61.2023 67.3739 60.942 67.3219 60.6791 67.3217C60.4162 67.3215 60.1559 67.3731 59.913 67.4736C59.6701 67.5741 59.4493 67.7215 59.2635 67.9074C59.0776 68.0933 58.9301 68.314 58.8296 68.5569C58.7291 68.7998 58.6775 69.0601 58.6777 69.323C58.6779 69.5859 58.7299 69.8461 58.8308 70.0889C58.9316 70.3316 59.0794 70.5521 59.2656 70.7377C63.5723 75.0545 65.991 80.9033 65.991 87.0011C65.991 93.0989 63.5723 98.9477 59.2656 103.264C58.9859 103.544 58.7955 103.901 58.7183 104.288C58.6412 104.676 58.6808 105.078 58.8321 105.444C58.9835 105.809 59.2398 106.122 59.5687 106.341C59.8975 106.561 60.2842 106.678 60.6797 106.678L60.6797 106.678Z" fill="#0BCEB2"/>
<path id="Vector_2" d="M55.0223 101.022C55.2849 101.022 55.5451 100.971 55.7878 100.87C56.0305 100.769 56.2509 100.622 56.4364 100.436C59.9954 96.8706 61.9942 92.0388 61.9942 87.0011C61.9942 81.9635 59.9954 77.1316 56.4364 73.5663C56.0611 73.1922 55.5528 72.9823 55.023 72.9827C54.4931 72.9831 53.9851 73.1938 53.6104 73.5684C53.2357 73.943 53.0251 74.4511 53.0246 74.9809C53.0242 75.5108 53.2341 76.0191 53.6081 76.3944C56.4167 79.2098 57.994 83.0243 57.994 87.0011C57.994 90.9779 56.4167 94.7924 53.6081 97.6079C53.3285 97.8876 53.1381 98.2439 53.0609 98.6318C52.9838 99.0197 53.0234 99.4218 53.1748 99.7872C53.3261 100.153 53.5824 100.465 53.9113 100.685C54.2401 100.904 54.6267 101.022 55.0222 101.022L55.0223 101.022ZM16.0001 88.654H24.6919C24.9601 88.654 25.2257 88.6 25.4727 88.4952C25.7197 88.3905 25.943 88.237 26.1294 88.0441L32.0232 81.948V93.001C32.0232 93.3994 32.1422 93.7888 32.3649 94.1192C32.5876 94.4495 32.904 94.7058 33.2733 94.8552C33.6427 95.0045 34.0483 95.0402 34.438 94.9575C34.8278 94.8748 35.184 94.6776 35.4609 94.3912L41.0715 88.5881H45.6647C45.9441 87.9373 46.0455 87.2239 45.9585 86.5211C45.8714 85.8182 45.5991 85.1511 45.1695 84.5881H40.2228C39.9545 84.5881 39.689 84.6421 39.442 84.7468C39.195 84.8516 38.9717 85.005 38.7853 85.198L36.0234 88.0544V77.0014C36.0234 76.603 35.9044 76.2136 35.6817 75.8833C35.4589 75.553 35.1426 75.2967 34.7733 75.1474C34.4039 74.998 33.9984 74.9624 33.6086 75.045C33.2189 75.1277 32.8627 75.3248 32.5858 75.6112L23.8432 84.654H16.0001C15.7365 84.6526 15.4753 84.7032 15.2314 84.8031C14.9875 84.903 14.7657 85.0501 14.5788 85.2359C14.3919 85.4218 14.2436 85.6427 14.1424 85.8861C14.0412 86.1295 13.9891 86.3904 13.9891 86.654C13.9891 86.9176 14.0412 87.1785 14.1424 87.4219C14.2436 87.6653 14.3919 87.8862 14.5788 88.0721C14.7657 88.2579 14.9875 88.405 15.2314 88.5049C15.4753 88.6047 15.7365 88.6554 16.0001 88.654V88.654Z" fill="#2D4356"/>
<path id="Vector_3" d="M47.6586 95.4864C47.8443 95.6721 48.0648 95.8195 48.3074 95.92C48.55 96.0205 48.8101 96.0723 49.0728 96.0723C49.3354 96.0723 49.5955 96.0205 49.8381 95.92C50.0807 95.8195 50.3012 95.6721 50.4869 95.4864C52.7341 93.2342 53.9961 90.1826 53.9961 87.0012C53.9961 83.8197 52.7341 80.7681 50.4869 78.516C50.1119 78.1409 49.6032 77.9302 49.0728 77.9302C48.5424 77.9302 48.0338 78.1408 47.6587 78.5159C47.2837 78.8909 47.073 79.3995 47.0729 79.9299C47.0729 80.4603 47.2836 80.969 47.6586 81.344C49.1567 82.8456 49.9981 84.8801 49.9981 87.0012C49.9981 89.1222 49.1567 91.1567 47.6586 92.6583C47.4729 92.844 47.3255 93.0644 47.225 93.307C47.1244 93.5496 47.0727 93.8097 47.0727 94.0723C47.0727 94.335 47.1244 94.595 47.225 94.8376C47.3255 95.0803 47.4729 95.3007 47.6586 95.4864V95.4864Z" fill="#0BCEB2"/>
<path id="waves" d="M91.7757 75.1474C91.4064 74.9978 91.0008 74.962 90.611 75.0447C90.2212 75.1273 89.865 75.3246 89.5881 75.6112L80.8456 84.654H73.8918C73.9496 85.4317 73.9879 86.2132 73.9879 87.0011C73.9879 87.5547 73.9711 88.1054 73.9426 88.654H81.6943C81.9626 88.654 82.2281 88.6 82.4751 88.4953C82.7221 88.3905 82.9454 88.237 83.1318 88.0441L89.0256 81.948V93.001C89.0257 93.3995 89.1448 93.7889 89.3677 94.1192C89.5905 94.4496 89.9069 94.7058 90.2763 94.8552C90.6458 95.0045 91.0514 95.0402 91.4412 94.9575C91.831 94.8748 92.1872 94.6776 92.4642 94.3912L98.0739 88.5881H101.598C102.209 89.8632 103.25 90.8817 104.538 91.4638C105.826 92.046 107.279 92.1543 108.639 91.7698C110 91.3852 111.18 90.5325 111.973 89.3621C112.766 88.1917 113.12 86.7788 112.972 85.3729C112.825 83.9669 112.186 82.6583 111.167 81.6779C110.149 80.6975 108.817 80.1084 107.406 80.0145C105.995 79.9206 104.597 80.3281 103.458 81.1649C102.318 82.0017 101.511 83.2141 101.179 84.5881H97.2252C96.9568 84.5882 96.6911 84.6422 96.444 84.747C96.1969 84.8517 95.9733 85.0051 95.7867 85.198L93.0258 88.0544V77.0014C93.0258 76.603 92.9067 76.2137 92.684 75.8834C92.4613 75.5531 92.145 75.2968 91.7757 75.1474V75.1474ZM107.004 84.0012C107.399 84.0012 107.786 84.1185 108.115 84.3383C108.444 84.5581 108.7 84.8704 108.852 85.2359C109.003 85.6013 109.043 86.0035 108.965 86.3914C108.888 86.7794 108.698 87.1357 108.418 87.4154C108.138 87.6951 107.782 87.8856 107.394 87.9628C107.006 88.0399 106.604 88.0003 106.238 87.8489C105.873 87.6975 105.561 87.4412 105.341 87.1123C105.121 86.7834 105.004 86.3967 105.004 86.0011C105.004 85.4709 105.215 84.9625 105.59 84.5876C105.965 84.2127 106.474 84.0018 107.004 84.0012Z" fill="#2D4356"/>
<path id="Vector_4" d="M5 146H2C1.46957 146 0.960859 146.211 0.585786 146.586C0.210714 146.961 0 147.47 0 148C0 148.53 0.210714 149.039 0.585786 149.414C0.960859 149.789 1.46957 150 2 150H5C5.53043 150 6.03914 149.789 6.41421 149.414C6.78929 149.039 7 148.53 7 148C7 147.47 6.78929 146.961 6.41421 146.586C6.03914 146.211 5.53043 146 5 146ZM154 146H151C150.47 146 149.961 146.211 149.586 146.586C149.211 146.961 149 147.47 149 148C149 148.53 149.211 149.039 149.586 149.414C149.961 149.789 150.47 150 151 150H154C154.53 150 155.039 149.789 155.414 149.414C155.789 149.039 156 148.53 156 148C156 147.47 155.789 146.961 155.414 146.586C155.039 146.211 154.53 146 154 146Z" fill="#2D4356"/>
<path id="Vector_5" d="M160 150C161.105 150 162 149.105 162 148C162 146.895 161.105 146 160 146C158.895 146 158 146.895 158 148C158 149.105 158.895 150 160 150Z" fill="#2D4356"/>
<path id="start" d="M112.154 154H103.846C103.343 154.04 102.874 154.268 102.532 154.639C102.19 155.01 102 155.496 102 156C102 156.504 102.19 156.99 102.532 157.361C102.874 157.732 103.343 157.96 103.846 158H112.154C112.657 157.96 113.126 157.732 113.468 157.361C113.81 156.99 114 156.504 114 156C114 155.496 113.81 155.01 113.468 154.639C113.126 154.268 112.657 154.04 112.154 154ZM52.1539 154H43.8462C43.3434 154.04 42.8742 154.268 42.5321 154.639C42.19 155.01 42 155.496 42 156C42 156.504 42.19 156.99 42.5321 157.361C42.8742 157.732 43.3434 157.96 43.8462 158H52.1539C52.6567 157.96 53.1258 157.732 53.468 157.361C53.8101 156.99 54.0001 156.504 54.0001 156C54.0001 155.496 53.8101 155.01 53.468 154.639C53.1258 154.268 52.6567 154.04 52.1539 154V154ZM98 154H58C57.4696 154 56.9609 154.211 56.5858 154.586C56.2107 154.961 56 155.47 56 156C56 156.53 56.2107 157.039 56.5858 157.414C56.9609 157.789 57.4696 158 58 158H73.94V160H66C65.4696 160 64.9609 160.211 64.5858 160.586C64.2107 160.961 64 161.47 64 162C64 162.53 64.2107 163.039 64.5858 163.414C64.9609 163.789 65.4696 164 66 164H91C91.5305 164 92.0392 163.789 92.4142 163.414C92.7893 163.039 93 162.53 93 162C93 161.47 92.7893 160.961 92.4142 160.586C92.0392 160.211 91.5305 160 91 160H82.06V158H98C98.5305 158 99.0392 157.789 99.4142 157.414C99.7893 157.039 100 156.53 100 156C100 155.47 99.7893 154.961 99.4142 154.586C99.0392 154.211 98.5305 154 98 154Z" fill="#0BCEB2"/>
<path id="Vector_6" d="M144.721 146H107.132C109.245 144.358 111.095 142.402 112.617 140.2C115.689 135.858 117.45 130.873 119.003 126.475C119.749 124.183 120.707 121.966 121.866 119.853C123.485 117.122 125.252 114.538 127.123 111.802C130.89 106.293 134.784 100.596 137.523 93.4932C143.253 78.6287 143.5 60.4469 138.164 46.0428C133.699 33.9894 125.689 25.7854 115.608 22.9432C106.293 20.3158 96.1977 23.2542 88.6017 30.8024C81.7226 37.6392 77.3874 48.1547 77.0036 58.9303C76.9848 59.4604 77.1774 59.9763 77.5389 60.3644C77.9004 60.7526 78.4013 60.9812 78.9314 61.0001C79.195 61.0141 79.4587 60.9749 79.7068 60.8848C79.9549 60.7947 80.1823 60.6556 80.3755 60.4757C80.5687 60.2959 80.7237 60.079 80.8313 59.838C80.9389 59.597 80.9969 59.3368 81.0018 59.0729C81.3495 49.2864 85.2451 39.7783 91.4222 33.6393C97.9791 27.1228 106.618 24.5652 114.522 26.7927C123.341 29.2795 130.404 36.6089 134.413 47.4325C139.424 60.962 139.186 78.0599 133.79 92.0547C131.22 98.7231 127.459 104.224 123.82 109.545C121.913 112.335 120.11 114.971 118.425 117.813C117.13 120.149 116.061 122.603 115.232 125.142C113.765 129.295 112.102 134.002 109.352 137.891C105.534 143.287 100.81 146.012 95.2369 146H95.2331C94.8621 145.999 94.4873 145.986 94.1088 145.961C86.7648 145.479 79.954 137.997 77.1609 127.343C77.0263 126.83 76.6935 126.391 76.2355 126.123C75.7775 125.856 75.232 125.781 74.7189 125.915C74.2058 126.05 73.7672 126.383 73.4995 126.841C73.2318 127.299 73.157 127.844 73.2916 128.357C75.3154 136.078 79.1654 142.254 83.977 146H11.2786C10.9941 145.963 10.7049 145.987 10.4304 146.07C10.1559 146.154 9.90233 146.295 9.68669 146.484C9.47104 146.673 9.29827 146.907 9.17991 147.168C9.06155 147.429 9.00033 147.713 9.00033 148C9.00033 148.287 9.06155 148.571 9.17991 148.832C9.29827 149.093 9.47104 149.327 9.68669 149.516C9.90233 149.705 10.1559 149.846 10.4304 149.93C10.7049 150.013 10.9941 150.037 11.2786 150H144.721C145.006 150.037 145.295 150.013 145.57 149.93C145.844 149.846 146.098 149.705 146.313 149.516C146.529 149.327 146.702 149.093 146.82 148.832C146.938 148.571 147 148.287 147 148C147 147.713 146.938 147.429 146.82 147.168C146.702 146.907 146.529 146.673 146.313 146.484C146.098 146.295 145.844 146.154 145.57 146.07C145.295 145.987 145.006 145.963 144.721 146ZM62.3047 6C62.898 6 63.478 5.82405 63.9714 5.49441C64.4647 5.16477 64.8492 4.69623 65.0763 4.14805C65.3034 3.59987 65.3628 2.99667 65.247 2.41473C65.1313 1.83279 64.8455 1.29824 64.426 0.878681C64.0064 0.459124 63.4719 0.173401 62.8899 0.0576455C62.308 -0.0581102 61.7048 0.00129986 61.1566 0.228363C60.6084 0.455426 60.1399 0.839943 59.8103 1.33329C59.4806 1.82664 59.3047 2.40666 59.3047 3C59.3056 3.79537 59.6219 4.5579 60.1844 5.12032C60.7468 5.68273 61.5093 5.99909 62.3047 6ZM62.3047 1.5C62.6013 1.5 62.8914 1.58798 63.138 1.7528C63.3847 1.91762 63.577 2.15189 63.6905 2.42598C63.804 2.70007 63.8337 3.00167 63.7758 3.29264C63.718 3.58361 63.5751 3.85088 63.3653 4.06066C63.1556 4.27044 62.8883 4.4133 62.5973 4.47118C62.3063 4.52906 62.0047 4.49935 61.7306 4.38582C61.4566 4.27229 61.2223 4.08003 61.0575 3.83336C60.8926 3.58668 60.8047 3.29667 60.8047 3C60.8051 2.6023 60.9632 2.22099 61.2444 1.93977C61.5257 1.65855 61.907 1.50039 62.3047 1.5ZM150.638 39.6667C150.242 39.6667 149.856 39.784 149.527 40.0037C149.198 40.2235 148.942 40.5359 148.79 40.9013C148.639 41.2668 148.599 41.6689 148.676 42.0569C148.754 42.4448 148.944 42.8012 149.224 43.0809C149.503 43.3606 149.86 43.5511 150.248 43.6282C150.636 43.7054 151.038 43.6658 151.403 43.5144C151.769 43.3631 152.081 43.1067 152.301 42.7778C152.521 42.4489 152.638 42.0622 152.638 41.6667C152.637 41.1364 152.426 40.6281 152.051 40.2531C151.677 39.8782 151.168 39.6673 150.638 39.6667ZM150.638 42.6667C150.44 42.6667 150.247 42.608 150.082 42.4981C149.918 42.3883 149.79 42.2321 149.714 42.0494C149.638 41.8666 149.619 41.6656 149.657 41.4716C149.696 41.2776 149.791 41.0994 149.931 40.9596C150.071 40.8197 150.249 40.7245 150.443 40.6859C150.637 40.6473 150.838 40.6671 151.021 40.7428C151.203 40.8185 151.36 40.9467 151.469 41.1111C151.579 41.2755 151.638 41.4689 151.638 41.6667C151.638 41.9318 151.532 42.186 151.345 42.3735C151.157 42.561 150.903 42.6664 150.638 42.6667ZM45.3333 56.3333C44.9377 56.3333 44.551 56.4506 44.2221 56.6704C43.8933 56.8902 43.6369 57.2025 43.4855 57.568C43.3342 57.9334 43.2945 58.3355 43.3717 58.7235C43.4489 59.1115 43.6394 59.4678 43.9191 59.7475C44.1988 60.0272 44.5551 60.2177 44.9431 60.2949C45.3311 60.3721 45.7332 60.3325 46.0987 60.1811C46.4641 60.0297 46.7765 59.7734 46.9962 59.4445C47.216 59.1156 47.3333 58.7289 47.3333 58.3333C47.3327 57.8031 47.1218 57.2947 46.7468 56.9198C46.3719 56.5448 45.8635 56.3339 45.3333 56.3333V56.3333ZM45.3333 59.3333C45.1355 59.3333 44.9422 59.2747 44.7777 59.1648C44.6133 59.0549 44.4851 58.8987 44.4094 58.716C44.3337 58.5333 44.3139 58.3322 44.3525 58.1382C44.3911 57.9443 44.4863 57.7661 44.6262 57.6262C44.766 57.4864 44.9442 57.3911 45.1382 57.3525C45.3322 57.314 45.5332 57.3338 45.716 57.4095C45.8987 57.4851 46.0549 57.6133 46.1648 57.7778C46.2746 57.9422 46.3333 58.1355 46.3333 58.3333C46.333 58.5985 46.2276 58.8527 46.0401 59.0401C45.8526 59.2276 45.5984 59.3331 45.3333 59.3333ZM120.667 4.33333C120.271 4.33333 119.884 4.45063 119.555 4.67039C119.227 4.89015 118.97 5.20251 118.819 5.56796C118.667 5.93342 118.628 6.33555 118.705 6.72351C118.782 7.11147 118.973 7.46784 119.252 7.74754C119.532 8.02725 119.888 8.21773 120.276 8.2949C120.664 8.37207 121.067 8.33247 121.432 8.18109C121.797 8.02972 122.11 7.77337 122.33 7.44447C122.549 7.11557 122.667 6.72889 122.667 6.33333C122.666 5.80308 122.455 5.29473 122.08 4.91979C121.705 4.54485 121.197 4.33394 120.667 4.33333V4.33333ZM120.667 7.33333C120.469 7.33333 120.276 7.27468 120.111 7.1648C119.947 7.05492 119.818 6.89874 119.743 6.71602C119.667 6.53329 119.647 6.33222 119.686 6.13824C119.724 5.94426 119.82 5.76608 119.96 5.62622C120.099 5.48637 120.278 5.39113 120.472 5.35255C120.666 5.31396 120.867 5.33376 121.049 5.40945C121.232 5.48514 121.388 5.61331 121.498 5.77776C121.608 5.94221 121.667 6.13555 121.667 6.33333C121.666 6.59847 121.561 6.85267 121.373 7.04015C121.186 7.22762 120.932 7.33307 120.667 7.33333V7.33333ZM4.66663 64C4.66663 63.6044 4.54933 63.2178 4.32957 62.8889C4.1098 62.56 3.79745 62.3036 3.43199 62.1522C3.06654 62.0009 2.66441 61.9613 2.27645 62.0384C1.88848 62.1156 1.53212 62.3061 1.25241 62.5858C0.972708 62.8655 0.782227 63.2219 0.705056 63.6098C0.627886 63.9978 0.667493 64.3999 0.818868 64.7654C0.970243 65.1308 1.22659 65.4432 1.55549 65.6629C1.88438 65.8827 2.27106 66 2.66663 66C3.19687 65.9994 3.70523 65.7885 4.08017 65.4135C4.45511 65.0386 4.66602 64.5302 4.66663 64V64ZM1.66663 64C1.66663 63.8022 1.72528 63.6089 1.83516 63.4444C1.94504 63.28 2.10122 63.1518 2.28394 63.0761C2.46667 63.0004 2.66774 62.9806 2.86172 63.0192C3.0557 63.0578 3.23388 63.153 3.37373 63.2929C3.51359 63.4327 3.60883 63.6109 3.64741 63.8049C3.686 63.9989 3.66619 64.2 3.59051 64.3827C3.51482 64.5654 3.38665 64.7216 3.2222 64.8315C3.05775 64.9413 2.86441 65 2.66663 65C2.40149 64.9997 2.14729 64.8943 1.95981 64.7068C1.77233 64.5193 1.66689 64.2651 1.66663 64Z" fill="#2D4356"/>
<path id="star" d="M29.876 30.848L31.363 28.892L30.424 28.361L29.47 30.55H29.438L28.469 28.376L27.513 28.924L28.985 30.833V30.864L26.684 30.566V31.63L29 31.333V31.365L27.513 33.273L28.405 33.837L29.423 31.63H29.454L30.392 33.821L31.379 33.258L29.876 31.38V31.349L32.238 31.63V30.566L29.876 30.879V30.848Z" fill="#0BCEB2"/>
<path id="star_2" d="M80.009 24.64L79.153 25.739L79.666 26.063L80.252 24.793H80.27L80.811 26.054L81.379 25.73L80.514 24.648V24.631L81.874 24.793V24.18L80.514 24.36V24.342L81.37 23.216L80.829 22.91L80.279 24.171H80.261L79.703 22.919L79.153 23.234L80 24.333V24.351L78.675 24.18V24.793L80.009 24.622V24.64Z" fill="#0BCEB2"/>
<path id="star_3" d="M157.65 6.06998V5.02698L155.333 5.33298V5.30298L156.792 3.38498L155.871 2.86298L154.935 5.01098H154.903L153.953 2.87798L153.015 3.41498L154.459 5.28798V5.31798L152.202 5.02698V6.06998L154.474 5.77898V5.80898L153.015 7.68098L153.89 8.23398L154.888 6.06998H154.918L155.839 8.21898L156.807 7.66598L155.333 5.82398V5.79398L157.65 6.06998Z" fill="#0BCEB2"/>
<path id="star_4" d="M5.70399 11.918L6.96199 10.264L6.16799 9.81403L5.35999 11.667H5.33299L4.51299 9.82703L3.70499 10.29L4.94999 11.905V11.932L3.00299 11.68V12.58L4.96299 12.329V12.355L3.70499 13.97L4.45899 14.447L5.31999 12.58H5.34599L6.14099 14.434L6.97499 13.957L5.70399 12.368V12.342L7.70299 12.58V11.68L5.70399 11.945V11.918Z" fill="#0BCEB2"/>
</g>
</svg>
