<svg width="45" height="64" viewBox="0 0 45 64" fill="none" xmlns="http://www.w3.org/2000/svg">
<path d="M44.02 58.7401C44.02 61.6501 34.16 64.0001 22.01 64.0001C9.86 64.0001 0 61.6501 0 58.7401C0 56.1401 7.9 54.0001 18.26 53.5601H25.76C36.13 54.0001 44.02 56.1401 44.02 58.7401V58.7401Z" fill="#E3E2E1"/>
<path d="M22.01 0C10.71 0 1.55005 9.15 1.55005 20.45C1.55005 31.75 22.01 58.74 22.01 58.74C22.01 58.74 42.46 31.75 42.46 20.45C42.46 9.15 33.31 0 22.01 0ZM22.01 33.99C14.53 33.99 8.47005 27.93 8.47005 20.45C8.47005 12.97 14.53 6.91 22.01 6.91C29.49 6.91 35.55 12.97 35.55 20.45C35.55 27.93 29.49 33.99 22.01 33.99Z" fill="#E82327"/>
</svg>
