<svg width="141" height="110" viewBox="0 0 141 110" fill="none" xmlns="http://www.w3.org/2000/svg">
<g id="Group 51">
<path id="Vector" d="M122.028 16.538V28.317M122.028 39.07V75.312C122.028 81.89 116.646 87.273 110.067 87.273H34.68C28.102 87.273 22.719 81.891 22.719 75.312V16.538L122.028 39.07Z" stroke="#359F90" stroke-miterlimit="10" stroke-linecap="round" stroke-linejoin="round"/>
<path id="Vector_2" opacity="0.3" d="M125.272 5.5H85.523C85.472 4.5 83.948 1.5 82.083 1.5H62.134C60.269 1.5 58.745 4.5 58.694 5.5H18.945C16.424 5.5 14.062 6.502 14.062 8.952V10.191C14.062 12.641 16.424 15.5 18.945 15.5H125.272C127.793 15.5 129.062 12.64 129.062 10.191V8.952C129.062 6.502 127.793 5.5 125.272 5.5V5.5ZM80.085 9.5H64.461C63.192 9.5 62.154 8.769 62.154 7.5C62.154 6.231 63.192 5.5 64.461 5.5H80.084C81.353 5.5 82.391 6.231 82.391 7.5C82.392 8.769 81.354 9.5 80.085 9.5V9.5Z" fill="#59D8C6"/>
<path id="top" d="M125.272 5H85.523C85.472 4 83.948 1 82.083 1H62.134C60.269 1 58.745 4 58.694 5H18.945C16.424 5 14.562 6.639 14.562 9.16V10.435C14.562 12.956 16.424 16 18.945 16H125.272C127.793 16 129.562 12.956 129.562 10.435V9.16C129.562 6.639 127.793 5 125.272 5V5Z" stroke="#0BCEB2" stroke-miterlimit="10" stroke-linecap="round" stroke-linejoin="round"/>
<path id="Vector_3" d="M6.243 28.4189V38.9049M1 33.6619H11.486M43.852 42.7859V49.0639M40.713 45.9249H46.991M98.985 30.5229V36.8009M102.124 33.6619H95.846M135.078 50.6059V61.0919M140.321 55.8489H129.835M72.385 87.2729L72.374 101.717M80.329 9.42489H64.216C63.6696 9.42331 63.1461 9.20555 62.7597 8.81919C62.3733 8.43284 62.1556 7.90928 62.154 7.36289V6.87389C62.154 5.73989 63.082 4.81189 64.216 4.81189H80.329C81.463 4.81189 82.392 5.73989 82.392 6.87389V7.36289C82.3902 7.90937 82.1722 8.43293 81.7857 8.81926C81.3992 9.20558 80.8755 9.42331 80.329 9.42489Z" stroke="#359F90" stroke-miterlimit="10" stroke-linecap="round" stroke-linejoin="round"/>
<path id="Vector_4" d="M72.3741 109.169C74.4319 109.169 76.1001 107.501 76.1001 105.443C76.1001 103.385 74.4319 101.717 72.3741 101.717C70.3163 101.717 68.6481 103.385 68.6481 105.443C68.6481 107.501 70.3163 109.169 72.3741 109.169Z" stroke="#359F90" stroke-miterlimit="10" stroke-linecap="round" stroke-linejoin="round"/>
<path id="Vector_5" d="M45.8361 66.478L68.8991 45.218M96.0201 58.524L118.946 37.391L96.0201 58.524ZM76.7711 45.837L88.0781 58.103L76.7711 45.837Z" stroke="#359F90" stroke-miterlimit="10" stroke-linecap="round" stroke-linejoin="round"/>
<path id="Vector_6" opacity="0.3" d="M123.598 39.1137C126.59 38.759 128.728 36.0463 128.373 33.0545C128.018 30.0627 125.306 27.9249 122.314 28.2795C119.322 28.6341 117.184 31.3469 117.539 34.3387C117.894 37.3305 120.606 39.4683 123.598 39.1137Z" fill="#59D8C6"/>
<path id="ball" d="M123.598 39.1137C126.59 38.759 128.728 36.0463 128.373 33.0545C128.018 30.0627 125.306 27.9249 122.314 28.2795C119.322 28.6341 117.184 31.3469 117.539 34.3387C117.894 37.3305 120.606 39.4683 123.598 39.1137Z" stroke="#359F90" stroke-miterlimit="10" stroke-linecap="round" stroke-linejoin="round"/>
<path id="ball_2" opacity="0.3" d="M92.4913 67.4638C95.4831 67.1091 97.6209 64.3964 97.2663 61.4046C96.9117 58.4128 94.1989 56.275 91.2071 56.6296C88.2153 56.9842 86.0775 59.697 86.4322 62.6888C86.7868 65.6806 89.4996 67.8184 92.4913 67.4638Z" fill="#59D8C6"/>
<path id="ball_3" d="M92.4913 67.4638C95.4831 67.1091 97.6209 64.3964 97.2663 61.4046C96.9117 58.4128 94.1989 56.275 91.2071 56.6296C88.2153 56.9842 86.0775 59.697 86.4322 62.6888C86.7868 65.6806 89.4996 67.8184 92.4913 67.4638Z" stroke="#359F90" stroke-miterlimit="10" stroke-linecap="round" stroke-linejoin="round"/>
<g id="ball_4">
<path id="Vector_7" opacity="0.3" d="M73.7708 47.1923C76.7625 46.8377 78.9004 44.1249 78.5457 41.1331C78.1911 38.1413 75.4783 36.0035 72.4865 36.3581C69.4948 36.7128 67.3569 39.4256 67.7116 42.4173C68.0662 45.4091 70.779 47.5469 73.7708 47.1923Z" fill="#59D8C6"/>
<path id="Vector_8" d="M73.7708 47.1923C76.7625 46.8377 78.9004 44.1249 78.5457 41.1331C78.1911 38.1413 75.4783 36.0035 72.4865 36.3581C69.4948 36.7128 67.3569 39.4256 67.7116 42.4173C68.0662 45.4091 70.779 47.5469 73.7708 47.1923Z" stroke="#359F90" stroke-miterlimit="10" stroke-linecap="round" stroke-linejoin="round"/>
</g>
<g id="ball_5">
<path id="Vector_9" opacity="0.3" d="M42.4668 75.5923C45.4586 75.2377 47.5964 72.5249 47.2418 69.5331C46.8871 66.5413 44.1744 64.4035 41.1826 64.7582C38.1908 65.1128 36.053 67.8256 36.4076 70.8173C36.7622 73.8091 39.475 75.9469 42.4668 75.5923Z" fill="#59D8C6"/>
<path id="Vector_10" d="M42.4668 75.5923C45.4586 75.2377 47.5964 72.5249 47.2418 69.5331C46.8871 66.5413 44.1744 64.4035 41.1826 64.7582C38.1908 65.1128 36.053 67.8256 36.4076 70.8173C36.7622 73.8091 39.475 75.9469 42.4668 75.5923Z" stroke="#359F90" stroke-miterlimit="10" stroke-linecap="round" stroke-linejoin="round"/>
</g>
<path id="Vector_11" opacity="0.3" d="M22.72 15.761H122.028V22.38H22.72V15.761Z" fill="#59D8C6"/>
</g>
</svg>
